<svg xmlns="http://www.w3.org/2000/svg" xmlns:xlink="http://www.w3.org/1999/xlink" viewBox="0 0 125.34 132.07"><defs><style>.cls-1{fill:#ff99ad;}.cls-2{fill:#e895cf;}.cls-3{clip-path:url(#clip-path);}.cls-4{fill:#39344d;}.cls-5{fill:#ff6a82;}.cls-6{fill:#facebb;}.cls-7,.cls-8{fill:#f5a8a4;}.cls-7{opacity:0.86;}.cls-9{fill:#bf726b;}.cls-10{fill:#89c9c9;}.cls-11{fill:#ffe1e7;}</style><clipPath id="clip-path"><circle class="cls-1" cx="62.67" cy="62.67" r="62.67"/></clipPath></defs><g id="Camada_2" data-name="Camada 2"><g id="OBJECTS"><g id="EIGHT"><circle class="cls-2" cx="62.67" cy="62.67" r="62.67"/><circle class="cls-1" cx="62.67" cy="62.67" r="62.67"/><g class="cls-3"><path class="cls-4" d="M51.81,15.05s-22-6.18-18.6,12.26S19.65,38.76,20.14,44.53s5.7,7.3,4,10.76S5.45,56.37,7,78.06s26.8,33.65,57.86,33.65,53-14.78,53.62-35.6-21-21.51-20.13-31.58S102.93,31.43,95,31s-.51-12.11-10.31-16.94c-6.57-3.23-14.79,2.85-14.79,2.85S68.9-.67,51.81,15.05Z"/><path class="cls-5" d="M102.12,98c-4.84-3.88-31.2-10.53-36.69-11.88v-.25l-.51.12-.51-.12v.25c-5.48,1.35-31.85,8-36.69,11.88-5.41,4.34-7.58,33.81-7.58,33.81H109.7S107.53,102.31,102.12,98Z"/><path class="cls-6" d="M56,70.17H73.85a0,0,0,0,1,0,0V95a7.72,7.72,0,0,1-7.72,7.72h-2.4A7.72,7.72,0,0,1,56,95V70.17a0,0,0,0,1,0,0Z"/><path class="cls-7" d="M56,83.82a25.14,25.14,0,0,0,8.92,1.58,23.94,23.94,0,0,0,8.93-1.69V63.24H56Z"/><path class="cls-6" d="M93.23,45.74c0,15.64-14.64,34.93-28.31,34.93-14.82,0-28.3-19.29-28.3-34.93a28.31,28.31,0,0,1,56.61,0Z"/><path class="cls-6" d="M39.16,53.78C41,57.17,41.8,61,38.92,62.56s-8.32.32-10.18-3.08-1-7.43,1.84-9S37.3,50.38,39.16,53.78Z"/><path class="cls-8" d="M31.49,59.55a.27.27,0,0,1-.25-.15c-1.13-2.07-.61-4.54,1.16-5.51s4.14-.08,5.27,2a9.42,9.42,0,0,1,.67,1.52.28.28,0,0,1-.18.36.28.28,0,0,1-.36-.18,9.65,9.65,0,0,0-.64-1.42c-1-1.79-3-2.58-4.48-1.76s-1.91,2.94-.93,4.72a.31.31,0,0,1-.12.4A.32.32,0,0,1,31.49,59.55Z"/><path class="cls-8" d="M37.24,59.93H37a2,2,0,0,1-1.33-.74,2,2,0,0,1-.41-1.46A2,2,0,0,1,37.47,56a.28.28,0,0,1,.25.32.29.29,0,0,1-.32.25,1.42,1.42,0,0,0-1.55,1.24,1.37,1.37,0,0,0,.3,1,1.34,1.34,0,0,0,.94.52A1.42,1.42,0,0,0,38.16,59a.29.29,0,0,1,.41,0,.28.28,0,0,1,0,.4A2,2,0,0,1,37.24,59.93Z"/><path class="cls-6" d="M90.09,53.78c-1.86,3.39-2.64,7.21.24,8.78s8.32.32,10.18-3.08,1-7.43-1.84-9S92,50.38,90.09,53.78Z"/><path class="cls-8" d="M97.76,59.55a.32.32,0,0,1-.14,0,.31.31,0,0,1-.12-.4c1-1.78.56-3.9-.93-4.72s-3.5,0-4.48,1.76a9.65,9.65,0,0,0-.64,1.42.28.28,0,0,1-.36.18.28.28,0,0,1-.18-.36,9.42,9.42,0,0,1,.67-1.52c1.13-2.07,3.5-3,5.27-2S99.14,57.33,98,59.4A.27.27,0,0,1,97.76,59.55Z"/><path class="cls-8" d="M92,59.93a2,2,0,0,1-1.3-.49.28.28,0,0,1,0-.4.29.29,0,0,1,.41,0,1.43,1.43,0,0,0,1.07.33,1.34,1.34,0,0,0,.94-.52,1.37,1.37,0,0,0,.3-1,1.43,1.43,0,0,0-1.55-1.24.28.28,0,0,1-.32-.25.28.28,0,0,1,.25-.32A2,2,0,0,1,94,57.72a2,2,0,0,1-1.74,2.2Z"/><path class="cls-9" d="M55,52a.87.87,0,1,1-.87-.87A.87.87,0,0,1,55,52Z"/><path class="cls-9" d="M50.1,47.27H50a.29.29,0,0,1-.21-.35,3.88,3.88,0,0,1,3.69-2.67.28.28,0,0,1,.3.28.29.29,0,0,1-.27.3,3.25,3.25,0,0,0-3.16,2.24A.29.29,0,0,1,50.1,47.27Z"/><path class="cls-9" d="M75,52a.87.87,0,1,0,.87-.87A.87.87,0,0,0,75,52Z"/><path class="cls-9" d="M79.81,47.27a.31.31,0,0,1-.28-.21,3.22,3.22,0,0,0-3.15-2.24.29.29,0,1,1,0-.58,3.85,3.85,0,0,1,3.69,2.67.29.29,0,0,1-.2.35Z"/><path class="cls-7" d="M49.64,55.57c.08,1.13-1.67,2.19-3.91,2.35s-4.12-.63-4.2-1.77S43.2,54,45.44,53.8,49.56,54.43,49.64,55.57Z"/><path class="cls-7" d="M80.6,55.57c-.08,1.13,1.67,2.19,3.91,2.35s4.12-.63,4.2-1.77S87,54,84.8,53.8,80.68,54.43,80.6,55.57Z"/><path class="cls-9" d="M64.4,64A4.42,4.42,0,0,1,60,59.62a.29.29,0,0,1,.58,0,3.84,3.84,0,0,0,7.37,1.5.29.29,0,0,1,.38-.16.3.3,0,0,1,.16.38A4.42,4.42,0,0,1,64.4,64Z"/><path class="cls-9" d="M64.44,58.4a.29.29,0,0,1,0-.58c2.14-.35,3.49-1.51,3.68-2.31l-3-.64a.29.29,0,0,1-.22-.26c-.28-3.44-.55-8.45-.55-8.5a.29.29,0,0,1,.27-.31h0a.29.29,0,0,1,.29.28c0,.05.25,4.85.52,8.27l3,.65a.27.27,0,0,1,.23.27c0,1.16-1.62,2.7-4.18,3.12Z"/><path class="cls-10" d="M27.72,98c-5.41,4.34-7.58,33.81-7.58,33.81H40.82c.78-26.09,3.12-40.13,3.12-40.13C36.73,93.82,30,96.19,27.72,98Z"/><path class="cls-10" d="M102.12,98c5.41,4.34,7.58,33.81,7.58,33.81H89c-.78-26.09-3.12-40.13-3.12-40.13C93.11,93.82,99.89,96.19,102.12,98Z"/><path class="cls-11" d="M55.5,111.15a.28.28,0,0,1-.21-.08c-.06-.07-6.42-6.68-5.2-20.32a.29.29,0,0,1,.57,0c-1.07,12,3.84,18.47,4.86,19.66l7.68-6.73a.29.29,0,0,1,.38.44l-7.89,6.91A.28.28,0,0,1,55.5,111.15Z"/><path class="cls-11" d="M72.81,111.15a.28.28,0,0,1-.19-.07l-7.89-6.91a.29.29,0,1,1,.38-.44l7.68,6.73c1-1.19,5.93-7.61,4.86-19.66a.28.28,0,0,1,.26-.31.26.26,0,0,1,.31.26,31.29,31.29,0,0,1-2.12,15.31,17.51,17.51,0,0,1-3.08,5A.28.28,0,0,1,72.81,111.15Z"/><path class="cls-11" d="M64.28,108.5a1.16,1.16,0,1,1,1.16-1.16A1.16,1.16,0,0,1,64.28,108.5Zm0-1.74a.58.58,0,0,0,0,1.16.58.58,0,0,0,0-1.16Z"/><path class="cls-11" d="M64.28,118.1a1.16,1.16,0,1,1,1.16-1.16A1.16,1.16,0,0,1,64.28,118.1Zm0-1.74a.58.58,0,0,0,0,1.16.58.58,0,0,0,0-1.16Z"/><path class="cls-11" d="M64.28,127.69a1.16,1.16,0,1,1,1.16-1.15A1.16,1.16,0,0,1,64.28,127.69Zm0-1.73a.58.58,0,0,0,0,1.16.58.58,0,1,0,0-1.16Z"/><path class="cls-11" d="M40.82,132.07h0a.29.29,0,0,1-.29-.29c.45-20,3.1-40,3.13-40.17a.29.29,0,1,1,.57.07c0,.2-2.67,20.12-3.12,40.11A.28.28,0,0,1,40.82,132.07Z"/><path class="cls-11" d="M89,132.07a.29.29,0,0,1-.29-.28c-.68-24.59-3.09-39.95-3.11-40.1a.28.28,0,0,1,.24-.33.3.3,0,0,1,.33.24c0,.15,2.43,15.54,3.12,40.17a.29.29,0,0,1-.28.3Z"/><path class="cls-4" d="M37.28,52s16.86-7.55,18.27-26.64c0,0,3,11.07,18.3,14.64a14,14,0,0,1,8.6-6.29s-.59,10,10.28,17.21c0,0,8.77-34.63-27.81-34.63C27,16.28,37.28,52,37.28,52Z"/></g></g></g></g></svg>