<svg xmlns="http://www.w3.org/2000/svg" xmlns:xlink="http://www.w3.org/1999/xlink" viewBox="0 0 125.34 131.49"><defs><style>.cls-1{fill:none;}.cls-2{fill:#ff99ad;}.cls-3{clip-path:url(#clip-path);}.cls-4{fill:#39344d;}.cls-5{fill:#df4f5b;}.cls-6{fill:#facebb;}.cls-7,.cls-8{fill:#f5a8a4;}.cls-7{opacity:0.86;}.cls-9{fill:#bf726b;}</style><clipPath id="clip-path"><circle class="cls-1" cx="62.67" cy="62.67" r="62.67" transform="translate(-8.9 114.95) rotate(-81.14)"/></clipPath></defs><g id="Camada_2" data-name="Camada 2"><g id="OBJECTS"><g id="FOUR"><circle class="cls-2" cx="62.67" cy="62.67" r="62.67" transform="translate(-8.9 114.95) rotate(-81.14)"/><g class="cls-3"><path class="cls-4" d="M61.08,14.35S38.62,7.14,33,28.66s-2,37.09-10,49.62S4.68,115.37,61.77,115.37c70,0,42.41-32.7,36.58-46.52S108.21-6.47,61.08,14.35Z"/><path class="cls-5" d="M99,97.68C94.13,93.8,67.76,87.15,62.28,85.79v-.25l-.51.13-.51-.13v.25c-5.49,1.36-31.85,8-36.69,11.89C19.16,102,17,131.49,17,131.49h89.56S104.38,102,99,97.68Z"/><path class="cls-6" d="M52.84,69.88H70.69a0,0,0,0,1,0,0V94.69A7.72,7.72,0,0,1,63,102.42h-2.4a7.72,7.72,0,0,1-7.72-7.72V69.88A0,0,0,0,1,52.84,69.88Z"/><path class="cls-7" d="M52.84,83.53a25.2,25.2,0,0,0,8.93,1.58,23.89,23.89,0,0,0,8.92-1.7V62.94H52.84Z"/><path class="cls-6" d="M90.07,45.45c0,15.63-14.63,34.92-28.3,34.92C47,80.37,33.46,61.08,33.46,45.45a28.31,28.31,0,0,1,56.61,0Z"/><path class="cls-6" d="M36,53.48c1.86,3.4,2.65,7.22-.23,8.79s-8.33.31-10.18-3.08-1-7.43,1.84-9S34.14,50.09,36,53.48Z"/><path class="cls-8" d="M28.34,59.26a.29.29,0,0,1-.25-.15A4.63,4.63,0,0,1,27.57,56a3.32,3.32,0,0,1,4.58-2.5,4.6,4.6,0,0,1,2.36,2.13,8.3,8.3,0,0,1,.68,1.51.29.29,0,1,1-.55.19A8.34,8.34,0,0,0,34,55.86,4.1,4.1,0,0,0,31.94,54a2.73,2.73,0,0,0-3.8,2.08,4,4,0,0,0,.45,2.75.28.28,0,0,1-.11.39A.25.25,0,0,1,28.34,59.26Z"/><path class="cls-8" d="M34.09,59.63h-.22a2,2,0,1,1,.44-3.93.29.29,0,0,1,.26.32.31.31,0,0,1-.32.25,1.37,1.37,0,0,0-1,.3,1.34,1.34,0,0,0-.52.94,1.4,1.4,0,0,0,1.23,1.55A1.37,1.37,0,0,0,35,58.71a.29.29,0,0,1,.38.44A2,2,0,0,1,34.09,59.63Z"/><path class="cls-6" d="M86.94,53.48c-1.86,3.4-2.64,7.22.23,8.79s8.33.31,10.19-3.08,1-7.43-1.85-9S88.8,50.09,86.94,53.48Z"/><path class="cls-8" d="M94.6,59.26a.27.27,0,0,1-.14,0,.28.28,0,0,1-.11-.39,4.08,4.08,0,0,0,.46-2.75,2.88,2.88,0,0,0-1.39-2A2.81,2.81,0,0,0,91,54a4.08,4.08,0,0,0-2.08,1.86,9.2,9.2,0,0,0-.63,1.43.29.29,0,0,1-.37.18.29.29,0,0,1-.18-.37,9,9,0,0,1,.68-1.51,4.58,4.58,0,0,1,2.37-2.13A3.32,3.32,0,0,1,95.37,56a4.68,4.68,0,0,1-.51,3.15A.31.31,0,0,1,94.6,59.26Z"/><path class="cls-8" d="M88.85,59.63a2,2,0,0,1-1.3-.48.29.29,0,1,1,.38-.44,1.38,1.38,0,0,0,1.08.34,1.4,1.4,0,1,0-.32-2.79.3.3,0,0,1-.32-.25.29.29,0,0,1,.26-.32,2,2,0,0,1,.45,3.93Z"/><circle class="cls-9" cx="50.93" cy="51.69" r="0.87"/><path class="cls-9" d="M47,47h-.07a.29.29,0,0,1-.21-.35A3.86,3.86,0,0,1,50.36,44a.27.27,0,0,1,.3.28.29.29,0,0,1-.28.3,3.22,3.22,0,0,0-3.15,2.23A.3.3,0,0,1,47,47Z"/><path class="cls-9" d="M71.81,51.69a.87.87,0,1,0,1.73,0,.87.87,0,0,0-1.73,0Z"/><path class="cls-9" d="M76.66,47a.3.3,0,0,1-.28-.22,3.22,3.22,0,0,0-3.15-2.23.29.29,0,0,1,0-.58,3.86,3.86,0,0,1,3.69,2.67.29.29,0,0,1-.21.35Z"/><path class="cls-7" d="M46.48,55.27c.09,1.14-1.66,2.19-3.9,2.35s-4.12-.63-4.2-1.76,1.66-2.19,3.9-2.35S46.4,54.14,46.48,55.27Z"/><path class="cls-7" d="M77.45,55.27c-.08,1.14,1.67,2.19,3.9,2.35s4.12-.63,4.21-1.76-1.67-2.19-3.91-2.35S77.53,54.14,77.45,55.27Z"/><path class="cls-9" d="M61.24,63.74a4.41,4.41,0,0,1-4.41-4.41.29.29,0,0,1,.58,0,3.83,3.83,0,0,0,7.37,1.49.29.29,0,1,1,.53.23A4.4,4.4,0,0,1,61.24,63.74Z"/><path class="cls-9" d="M61.28,58.1a.29.29,0,0,1,0-.57c2.14-.36,3.49-1.51,3.68-2.32l-3-.63a.3.3,0,0,1-.23-.26c-.28-3.44-.54-8.46-.55-8.51a.3.3,0,0,1,.28-.3.29.29,0,0,1,.3.27s.26,4.85.53,8.28l3.05.64a.3.3,0,0,1,.23.27c0,1.17-1.62,2.7-4.19,3.13Z"/><path class="cls-6" d="M57.39,86.77c-3.16.81-7.51,2-12,3.24a36.12,36.12,0,0,0,16.41,21.13A36.12,36.12,0,0,0,78.18,90c-4.53-1.29-8.88-2.43-12-3.24l-4.38-.62Z"/><path class="cls-4" d="M33.8,50.92s6.79-6.15,8.63-20.57c0,0,29.19,25.23,42.84,10.28,0,0,.33,6.76,4.31,10,0,0,8.07-34.26-26.32-34.26C25.51,16.36,33.8,50.92,33.8,50.92Z"/></g></g></g></g></svg>