<svg xmlns="http://www.w3.org/2000/svg" viewBox="0 0 415.91 399.12"><defs><style>.cls-1{isolation:isolate;}.cls-2{fill:#cecae5;}.cls-3{fill:#fbd872;}.cls-4{fill:#a0bffd;}.cls-5{fill:#182645;}.cls-6{fill:#42648e;}.cls-7{fill:#fff;}.cls-8{fill:#a0bfff;}.cls-9{fill:#a3cddf;}.cls-10{mix-blend-mode:multiply;opacity:0.47;}.cls-11{fill:#121e33;}.cls-12{fill:#9dbefc;}.cls-13{fill:#fa714d;}.cls-14{mix-blend-mode:soft-light;opacity:0.5;}</style></defs><g class="cls-1"><g id="Camada_2" data-name="Camada 2"><g id="BACKGROUND"><rect class="cls-2" x="389" y="279.15" width="16.11" height="16.11" transform="translate(319.38 -196.64) rotate(45)"/><rect class="cls-3" x="27.94" y="373.1" width="21.56" height="21.56" transform="translate(282.78 85.06) rotate(45)"/><rect class="cls-3" x="338.38" y="34.6" width="18.1" height="18.1" transform="translate(132.62 -232.88) rotate(45)"/><rect class="cls-3" x="53.36" y="22.58" width="13.8" height="13.8" transform="translate(38.5 -33.97) rotate(45)"/><circle class="cls-2" cx="50.88" cy="353.56" r="3.99"/><circle class="cls-2" cx="36.66" cy="55.27" r="3.99"/><circle class="cls-3" cx="121.57" cy="116.69" r="4.66"/><circle class="cls-3" cx="399.48" cy="167.46" r="3.99"/><path class="cls-2" d="M387.64,350.72a4,4,0,1,1-4,4A4,4,0,0,1,387.64,350.72Z"/><path class="cls-3" d="M42.4,134.86a4,4,0,1,1-4,4A4,4,0,0,1,42.4,134.86Z"/><circle class="cls-3" cx="322.76" cy="327.4" r="3.99"/></g><g id="OBJECTS"><path class="cls-4" d="M141.24,42.59a17.57,17.57,0,0,1-4.55-8.93,20.54,20.54,0,0,1,8.3-2.59c4.43-.27,4.59-2.88,4.59-2.88a1.31,1.31,0,0,1,1.75.78,13,13,0,0,1,.28,6.58A36.08,36.08,0,0,1,150,40.38"/><path class="cls-4" d="M141,41.7s4.25,24,14.68,42.78a6,6,0,0,0,8,2.39c5.05-2.63,13-6.93,19.8-11.19,0,0-4.71-12.5-6.27-18.7,0,0-9.85,7.32-13.09,11.32L149.79,39.49Z"/><path class="cls-5" d="M149,36l-7,1a1.39,1.39,0,0,1-1.76-1.27l-.83-20A1.38,1.38,0,0,1,141,14.31l6.85.63a1.4,1.4,0,0,1,1.18,1.3l1,18.32A1.38,1.38,0,0,1,149,36Z"/><path class="cls-6" d="M148.17,34l-5.53.79a1.23,1.23,0,0,1-1.56-1.09L140.24,17a1.22,1.22,0,0,1,1.42-1.23l5.54.36a1.19,1.19,0,0,1,1,1.11l.83,15.6A1.2,1.2,0,0,1,148.17,34Z"/><path class="cls-4" d="M137.91,26.48c1.26,1.59,6.7-1.93,6.33-3.66S136,24.08,137.91,26.48Z"/><path class="cls-4" d="M137.15,28.09c0,2.83,8.1,2.07,8.68.2S137.15,24.68,137.15,28.09Z"/><path class="cls-4" d="M136.63,30.81c.25,2.22,7.32,2,7.89.19S136.23,27.46,136.63,30.81Z"/><path class="cls-4" d="M136.69,33.66c.25,2,6,1.76,6.59.11S136.3,30.65,136.69,33.66Z"/><path class="cls-7" d="M143.39,15.39c.76,0,1.52.11,2.28.15.12,0,.14-.18,0-.19-.77,0-1.53-.11-2.29-.15-.12,0-.14.18,0,.19Z"/><path class="cls-7" d="M142.9,15.34a.09.09,0,0,0,0-.18.09.09,0,0,0,0,.18Z"/><path class="cls-7" d="M145.58,35.9a.54.54,0,0,1-.35-.06.51.51,0,0,1-.23-.32.49.49,0,0,1,.05-.39.51.51,0,0,1,.32-.23.49.49,0,0,1,.39.05h0a.53.53,0,0,1,.18.71A.52.52,0,0,1,145.58,35.9Zm-.14-.86h0a.41.41,0,0,0-.22.17.37.37,0,1,0,.5-.13h0A.34.34,0,0,0,145.44,35Z"/><path class="cls-5" d="M165.22,66.83l-3.86,3.76c-.22.22.08.6.31.38l3.85-3.76c.23-.22-.08-.59-.3-.38Z"/><path class="cls-5" d="M138,32.25a6.06,6.06,0,0,1,3.35.15c.3.1.48-.35.18-.45a6.62,6.62,0,0,0-3.61-.18c-.3.07-.23.55.08.48Z"/><path class="cls-5" d="M138.07,29.42a6.28,6.28,0,0,1,5.05.46c.27.15.45-.3.18-.45a6.73,6.73,0,0,0-5.43-.45c-.29.09-.09.54.2.44Z"/><path class="cls-5" d="M138.29,26.91a7.75,7.75,0,0,1,3.1-.35c.31,0,.37-.46.05-.48a8.3,8.3,0,0,0-3.35.39c-.3.09-.09.54.2.44Z"/><path class="cls-8" d="M263.82,49.65s9.14-1.95,10.64-2.42l9.84,36.41,11.44-1.93s-3.94-26.94-9.66-44.26a6.86,6.86,0,0,0-6-4.72,165.36,165.36,0,0,0-20-.46,35,35,0,0,0,.77,9.26A27.24,27.24,0,0,0,263.82,49.65Z"/><path class="cls-8" d="M284.3,83.64s2.8,10.65,12.45,9c9.09-1.6,10.54-6.29,10-8.29s-10.27,2.22-11-2.6"/><path class="cls-8" d="M297,85.08s-.22-3,2.1-3.35,1.2,3.23,1.2,3.23"/><path class="cls-8" d="M300.33,84.69s-.22-3,2.05-3.34,1.19,3.23,1.19,3.23"/><path class="cls-8" d="M303.51,84.38s-.23-3,2-3.34,1.18,3.24,1.18,3.24"/><path class="cls-8" d="M306.59,86.45a6.68,6.68,0,0,0,.37-4.09c-.26-1.68-1.81.43-1.86,1.72S306,87.63,306.59,86.45Z"/><path class="cls-8" d="M300.75,82.33A1.74,1.74,0,0,0,299,81.26c-1.92.09-2.36,2.14-2.49,3.56,0,.49.78.52.82,0,.09-1,.22-2.55,1.51-2.81,1.68-.33,1.19,2,1.15,2.82,0,.5.79.53.82,0A5.81,5.81,0,0,0,300.75,82.33Z"/><path class="cls-8" d="M302.22,81c-2.14.23-1.84,2.72-2.32,4.07-.17.48.61.71.78.23.35-1,.11-2.48,1-3.25s1.51.2,1.7.93a4.19,4.19,0,0,1,0,2c-.11.48.71.51.82,0C304.45,83.71,304.27,80.82,302.22,81Z"/><path class="cls-8" d="M304.84,80.92c-1.42.7-1.56,2.71-1.65,4.09a.38.38,0,0,0,.75,0c0-.43.05-.86.11-1.28l.16-.73c.05-.7.43-1,1.14-.79,1.13-.15,1,.07,1.17,1a5.64,5.64,0,0,1-.13,2.09,5.3,5.3,0,0,1-4.6,3.88c-.48.06-.31.85.16.75a6.34,6.34,0,0,0,5.17-7.55C306.92,81.38,306,80.33,304.84,80.92Z"/><path class="cls-5" d="M295,79c.36,3.47,1.94,7.42,5.95,7.65.31,0,.36-.47.05-.48-3.81-.22-5.19-4-5.52-7.24,0-.32-.51-.24-.48.07Z"/><path class="cls-5" d="M300.42,82.15a15.62,15.62,0,0,1-1.11,3.64.25.25,0,0,0,.46.18,16.77,16.77,0,0,0,1.13-3.76.24.24,0,0,0-.48-.06Z"/><path class="cls-5" d="M303.59,82a8.79,8.79,0,0,1-.48,2.49c-.1.3.36.47.46.18a9.35,9.35,0,0,0,.5-2.61c0-.31-.46-.37-.48-.06Z"/><path class="cls-5" d="M273.43,47.51l3.87-1c.3-.08.23-.56-.07-.48l-3.87,1c-.3.08-.23.56.07.48Z"/><path class="cls-9" d="M352,229.55l19.17,12.89-24.09,35.83-2.25-1.52a10.14,10.14,0,0,1-2.76-14.06h0a10.12,10.12,0,0,0-2.75-14.05l-.11-.07Z"/><path class="cls-7" d="M345.11,276.72,370,240.33c.43-.63-.53-1.33-1-.7L344.16,276c-.43.63.52,1.33.95.7Z"/><path class="cls-7" d="M362.1,236a9.54,9.54,0,0,0,0,12.81c.49.57,1.41-.18.91-.75a8.4,8.4,0,0,1,.08-11.37c.5-.57-.46-1.26-1-.69Z"/><path class="cls-7" d="M342.47,262.45,350,267.8c.62.44,1.32-.52.7-1l-7.56-5.35a.59.59,0,0,0-.7,1Z"/><path class="cls-7" d="M344.15,256.24l3.46-1.77c.67-.35.19-1.43-.49-1.08l-3.46,1.77c-.68.34-.19,1.42.49,1.08Z"/><path class="cls-7" d="M343.29,253.16l3.89-2.57c.64-.42-.11-1.33-.74-.91l-3.9,2.57c-.63.42.12,1.33.75.91Z"/><path class="cls-5" d="M206.68,101.92s35.43,98.74,128.48,161.68c0,0,13.29-22.4,29.1-38.08,0,0-75.41-55.14-117.68-144.55C246.58,81,221.26,95.16,206.68,101.92Z"/><path class="cls-7" d="M326.22,257.69a281.74,281.74,0,0,1,28.84-37.16c.51-.56-.45-1.25-1-.69A281.64,281.64,0,0,0,325.26,257c-.41.64.54,1.34,1,.7Z"/><path class="cls-7" d="M266.77,160.51c21.68,27.51,44.61,55.92,72.66,77.23.6.46,1.3-.5.69-1-27.95-21.24-50.82-49.59-72.43-77-.47-.6-1.39.15-.92.75Z"/><g class="cls-10"><path class="cls-11" d="M274.73,166.06a166.85,166.85,0,0,1-13.09-13.21l-1.19-.14s30.46,41.77,66.71,40c-6.19-6.17-12.84-13.15-19.69-20.9-.81.26-1.63.54-2.44.79A31.66,31.66,0,0,1,274.73,166.06Z"/></g><path class="cls-9" d="M375.5,98.54,396,87.89l19.91,38.31-2.41,1.25a10.13,10.13,0,0,1-13.66-4.31h0a10.12,10.12,0,0,0-13.66-4.32l-.11.06Z"/><path class="cls-7" d="M413.6,127.21l-20-39.3c-.35-.68-1.43-.19-1.08.49l20,39.3c.34.67,1.42.19,1.07-.49Z"/><path class="cls-7" d="M386,92.78A9.51,9.51,0,0,0,397.24,99c.74-.16.56-1.33-.18-1.16a8.36,8.36,0,0,1-9.95-5.5c-.25-.72-1.33-.23-1.08.48Z"/><path class="cls-7" d="M399.8,122.68l8.32-4.07c.68-.33.2-1.41-.49-1.07l-8.32,4.07c-.68.33-.19,1.41.49,1.07Z"/><path class="cls-7" d="M395.16,118.26c0-1.3.07-2.6.11-3.89,0-.76-1.16-.89-1.18-.13,0,1.29-.07,2.59-.11,3.88,0,.76,1.16.9,1.18.14Z"/><path class="cls-7" d="M392.06,117.53c-.14-1.55-.27-3.1-.4-4.65-.06-.76-1.23-.57-1.16.18l.39,4.65c.06.76,1.23.57,1.17-.18Z"/><path class="cls-5" d="M221.82,96.51s25,44.66,52.91,69.55a31.66,31.66,0,0,0,30.3,6.58c24.7-7.54,49.66-21.73,90.74-44.17,0,0-11.2-23.18-18.22-43.94,0,0-31.29,19.61-79.1,42.11,0,0-15.79-29.12-31.18-55.28C267.27,71.36,241.12,87.51,221.82,96.51Z"/><path class="cls-7" d="M366,91.09a363.92,363.92,0,0,0,19.12,42c.36.66,1.44.18,1.08-.49a363.92,363.92,0,0,1-19.12-42c-.27-.71-1.35-.22-1.08.49Z"/><path class="cls-7" d="M242.33,126.5c7.33,12.44,14.88,25.58,26,35.08,7.13,6.09,13.37,11.74,23.08,12.72,9.12.92,18.22-1.72,26.64-5,.71-.28.22-1.35-.49-1.08-8.59,3.33-18,6-27.26,4.73s-15.56-7.29-22.25-13.2c-10.44-9.2-17.66-21.93-24.63-33.77-.38-.65-1.46-.17-1.08.49Z"/><path class="cls-7" d="M264,85.92c2.54,4.07,5.06,9.51,8.65,12.75,3.17,2.87,6.72,1.54,10.07-.31.67-.36.18-1.44-.48-1.07-2.22,1.22-4.46,2.34-7,1.5-2.09-.69-3.19-2.54-4.35-4.27q-3.07-4.62-6-9.34c-.4-.65-1.31.11-.92.74Z"/><path class="cls-3" d="M177.23,57c5-3.7,34.08-25.7,83.85-24.82,0,0,2.16,10.26,4.45,17.22,0,0-3.11.56-9.6,2.29,0,0,6.29,10.43,13.5,23.38,0,0-26.8,28.75-59.24,35.79a284.91,284.91,0,0,1-15-41.38s-2.65.75-11.68,6.22A122.28,122.28,0,0,1,177.23,57Z"/><path class="cls-7" d="M256.13,32.5c1.36,6.13,3.13,12.08,5.09,18,.23.72,1.31.23,1.07-.49-1.92-5.86-3.66-11.72-5-17.75-.17-.74-1.34-.56-1.17.19Z"/><path class="cls-7" d="M180,55.09a138,138,0,0,0,6.46,18.19.59.59,0,0,0,1.07-.49,136.33,136.33,0,0,1-6.36-17.89c-.2-.72-1.37-.54-1.17.19Z"/><path class="cls-7" d="M203.23,42.68c2.06,6.13,8.46,9.82,14.74,7.51s8.73-9.22,6.4-15.25c-.28-.71-1.35-.22-1.08.49,5.06,13.06-14.48,20.15-19,6.76-.24-.72-1.32-.22-1.08.49Z"/><path class="cls-7" d="M212.21,114.54a104.39,104.39,0,0,0,59.22-38c.46-.6-.49-1.3-1-.69A103.1,103.1,0,0,1,212,113.37c-.74.17-.56,1.34.19,1.17Z"/><path class="cls-7" d="M228.92,112.59a32,32,0,0,0,7,11.59c2,2.07,4.26,3.75,7.18,2.57.7-.29.22-1.37-.49-1.08C236.77,128,231.38,116,230,112.1c-.25-.72-1.33-.22-1.08.49Z"/><path class="cls-5" d="M221.05,9.77A6.8,6.8,0,0,0,218.58,8c-4.19-1.74-10.14-.32-14.6-.07-4.11.22-8.88,1.06-11.76,4.38-2.17,2.5-2.65,6.45.6,8,3.6,1.75,8.34-1,11.39-2.91q1-.66,2-1.35h.09c2.63.24,4.73,1.41,7.17,2.13s5.52.56,7.4-1.22c.94,1.17,3.34,1,3.38-.89A7.21,7.21,0,0,0,221.05,9.77Z"/><path class="cls-12" d="M202.37,15.24s-9,19,4.37,21.42V40a7.36,7.36,0,0,0,7.8,7.3h0a7.35,7.35,0,0,0,6.9-7.52l-.17-8s4.55.32,4.83-3.56-4.38-3.67-4.38-3.67l.15-8S213.08,7.74,202.37,15.24Z"/><path class="cls-5" d="M225.44,12.46a8.49,8.49,0,0,0-6.09-6.38c-2.88-.63-5.69.62-8.48,1.1a28,28,0,0,1-11.06-.27c-3.28-.75-8.39-3.31-11,.34-2,2.74,0,6.16,2.16,8.08a16.77,16.77,0,0,0,12.37,3.82,38.25,38.25,0,0,0,6.15-1.57c3-.77,6-1.25,6.81,3.11.16.87-.13,1.83,0,2.71a4.77,4.77,0,0,0,2.33,3.51,2.81,2.81,0,0,0,3.89-1.58c.78-2,2-4,2.59-6.08A12.55,12.55,0,0,0,225.44,12.46Z"/><path class="cls-5" d="M224.52,10.36A6.66,6.66,0,0,0,223,7.72c-3.11-3.29-9.14-4.41-13.31-6C205.82.26,201.12-.9,197.15,1c-3,1.41-5,4.82-2.71,7.58,2.58,3.06,8,2.51,11.6,2,.79-.12,1.58-.26,2.38-.41l.07,0c2.31,1.29,3.76,3.21,5.69,4.86s4.82,2.75,7.26,1.88c.39,1.45,2.67,2.24,3.46.56A7.25,7.25,0,0,0,224.52,10.36Z"/><path class="cls-5" d="M225.44,18.22c1.17-3.94,2.05-8.57.35-12.48a1.13,1.13,0,0,0-2.06.93c1.43,3.31.58,7.4-.4,10.73-.42,1.39,1.69,2.22,2.11.82Z"/><path class="cls-5" d="M222.17,18.21a7.5,7.5,0,0,1,7.18-5.62c1.44,0,1.71-2.26.25-2.26A9.86,9.86,0,0,0,219.91,18c-.34,1.42,1.91,1.66,2.26.26Z"/><path class="cls-7" d="M196.46,26.82a4.54,4.54,0,0,0,5.75,1.05,3.88,3.88,0,0,0,1.45-5.37c-1.16-1.87-3.79-2.14-5.65-1.25a3.62,3.62,0,0,0-1.55,5.57c.27.4.85-.08.59-.48-2.7-4.12,4.84-6.91,6.24-2.83,1.3,3.8-4.07,5.46-6.24,2.83A.38.38,0,0,0,196.46,26.82Z"/><path class="cls-7" d="M206.84,27.15a4.54,4.54,0,0,0,5.75,1.05,3.88,3.88,0,0,0,1.46-5.37c-1.17-1.87-3.8-2.14-5.66-1.25a3.62,3.62,0,0,0-1.55,5.57c.27.4.85-.08.59-.48-2.7-4.12,4.85-6.91,6.24-2.83,1.3,3.8-4.07,5.46-6.24,2.83A.38.38,0,0,0,206.84,27.15Z"/><path class="cls-5" d="M223,26.82c1.8.22.31,3.31-1.15,2.49-.27-.15-.56.24-.29.39a2,2,0,0,0,2.6-1.12,1.54,1.54,0,0,0-1.1-2.24.24.24,0,0,0-.06.48Z"/><path class="cls-5" d="M221.65,29.69a1.19,1.19,0,0,0,1.07-2c-.22-.22-.6.09-.38.31a.7.7,0,0,1-.63,1.22c-.31-.06-.36.42-.06.48Z"/><path class="cls-5" d="M205.06,23.48A6.92,6.92,0,0,1,203.52,28a.24.24,0,0,0,.16.37,7.9,7.9,0,0,1,1.94.28c.29.07.46-.36.17-.43a8.41,8.41,0,0,0-2.06-.31l.16.36a7.33,7.33,0,0,0,1.63-4.71c0-.3-.46-.35-.46-.05Z"/><path class="cls-5" d="M205,30.51a1.86,1.86,0,0,0,2.46-1.18c.09-.3-.36-.48-.46-.18a1.36,1.36,0,0,1-1.82.91.24.24,0,0,0-.18.45Z"/><path class="cls-5" d="M210.48,25.44c.73-.12.42-1.23-.25-.91s.08,1.38.63.81a.58.58,0,0,0-.78-.84c-.58.44.21,1.27.7.79.26-.25-.09-.7-.35-.44l0,0a.28.28,0,0,0,.09.56Z"/><path class="cls-5" d="M200.87,25.05c.73-.12.43-1.23-.25-.92s.09,1.39.63.82a.58.58,0,0,0-.78-.84c-.57.44.21,1.27.71.79.26-.26-.1-.7-.36-.44l0,0a.28.28,0,0,0,.09.56Z"/><path class="cls-7" d="M204.07,25l2.06.2a.38.38,0,0,0,.08-.75l-2.06-.2a.38.38,0,0,0-.08.75Z"/><path class="cls-7" d="M214.6,25c2.75-.14,5.49-.11,8.24,0,.48,0,.57-.74.08-.75-2.81-.08-5.62-.11-8.44,0-.48,0-.36.77.12.75Z"/><path class="cls-5" d="M206.43,36.77a13.3,13.3,0,0,0,6.79-.65c.3-.1.09-.55-.2-.44a12.84,12.84,0,0,1-6.53.61c-.31,0-.36.43-.06.48Z"/><path class="cls-7" d="M235.89,66a.58.58,0,0,1-.62-.35l-4.51-11.19a.55.55,0,0,1,.32-.74l11.19-4.35a.56.56,0,0,1,.72.3l4.64,10.71a.56.56,0,0,1-.18.67l-3.22,2.44a8.73,8.73,0,0,1-3.57,1.59l-4.75.91ZM232,54.54l4.13,10.23,4.3-.83a7.44,7.44,0,0,0,3.09-1.37l2.87-2.17-4.24-9.8Z"/><path class="cls-7" d="M233.15,57.68a65.71,65.71,0,0,0,10.39-4.08c.68-.34.19-1.42-.49-1.08a63,63,0,0,1-10.09,4c-.72.21-.54,1.38.19,1.17Z"/><path class="cls-5" d="M246.19,320.71l-.26,0a32.43,32.43,0,0,1-25.64-15.49,51.53,51.53,0,0,1-5.66-13.59,90.71,90.71,0,0,1-15,3.49c-16,1.95-25.08-5.31-29.05-9.8s-10-14.38-5.4-29.65a88.62,88.62,0,0,1,6-14l.91-1.84c-8.87-7.53-24.17-21.11-19.36-40.93a23.38,23.38,0,0,1,45.82,2c1.39,1.29,3.19,2.81,4.46,3.88,7.21,6.11,16.19,13.72,18,25.87a35.58,35.58,0,0,1-.32,11.91A31.47,31.47,0,0,1,234.9,245c17.3,7.39,21.79,23.34,24.18,32a23.38,23.38,0,0,1-12.89,43.72Zm3.19-46.63h0Zm-51.22-64.16v0Z"/><polygon class="cls-3" points="99.1 224.74 103.72 203.41 58.26 193.57 72.05 208.17 68.25 225.72 99.1 224.74"/><path class="cls-5" d="M102.75,206.74l-37.94-8.32c-.73-.16-1.12,1-.38,1.11q19,4.16,37.93,8.32c.74.16,1.13-.95.39-1.11Z"/><path class="cls-5" d="M100.19,216.25a7.42,7.42,0,0,1-4.63-9.82c.26-.71-.85-1.09-1.12-.38a8.63,8.63,0,0,0,5.36,11.32.59.59,0,0,0,.39-1.12Z"/><path class="cls-5" d="M77.5,212.16c-2-.34-4.08-.74-6.13-1.09-.75-.12-.82,1.06-.07,1.18,2,.35,4.08.75,6.13,1.09.75.13.82-1.05.07-1.18Z"/><path class="cls-5" d="M78.7,208.64l-7-1.52c-.74-.16-1.13,1-.39,1.12l7,1.52c.73.16,1.12-1,.38-1.12Z"/><path class="cls-13" d="M181.51,341.73c-13.4,46.49-118.27-16.16-116.44-117.31l44-4.82s-2.86,42.54,21.64,68.48S192.27,304.38,181.51,341.73Z"/><path class="cls-5" d="M107.74,231a221.21,221.21,0,0,0-35.63,4.27.59.59,0,0,0,.24,1.16,219.64,219.64,0,0,1,35.32-4.25c.75,0,.83-1.21.07-1.18Z"/><path class="cls-5" d="M89.64,233.46a141.9,141.9,0,0,0,20,54.6c.4.65,1.45.12,1.06-.53a141.2,141.2,0,0,1-19.89-54.31c-.1-.75-1.26-.51-1.15.24Z"/><g class="cls-14"><path class="cls-5" d="M65.93,224.48l25-2.85S88.54,259.84,118.07,269c0,0,10.37,29.39,48.7,40.4C166.77,309.41,102.52,313.72,65.93,224.48Z"/></g><path class="cls-8" d="M187.83,242.06a58.14,58.14,0,0,1,.67-13.87,1,1,0,0,1,.66-.77.93.93,0,0,1,1.2.6c1.18,3.19,1.31,9.41,1.29,12.88"/><path class="cls-8" d="M188.93,240.71a70.93,70.93,0,0,0-2.46-14.09c-.17-.56-.61-1.24-1.42-1.05a1.5,1.5,0,0,0-1,1.54c-.18,4.33.5,11.31.86,15.55"/><path class="cls-8" d="M184.85,240a27.42,27.42,0,0,0-2.65-11.9,1.21,1.21,0,0,0-1.39-.72,1.3,1.3,0,0,0-.82,1.3c-.15,3.27.3,9.22.15,12.49"/><path class="cls-8" d="M178.11,245.94c-.24-1.61-1.42-12.31-1.4-14.46a1.23,1.23,0,0,1,2.36-.67,41,41,0,0,1,3.18,10"/><path class="cls-8" d="M188.41,239.64c1.27-.71,2.49-1.51,3.8-2.13a8.66,8.66,0,0,1,4.19-1c1.75.1,1.62,1.36.68,2.44a39.16,39.16,0,0,1-7.81,6.75"/><path class="cls-8" d="M190.57,239.32s4.88,12.31-4.85,12.59c-7.65.22-7.47-2.65-8.2-12.91C177.27,235.44,186,235,190.57,239.32Z"/><path class="cls-8" d="M247.8,331.83s-71.18,3.86-70.19-88.94l14.89.69s.47,26.6,18.51,44.29S233.26,296,247.8,331.83Z"/><path class="cls-9" d="M211,287.87a55,55,0,0,1-8.84-11.4,96,96,0,0,1-19.54,5.76c16.08,52.26,65.17,49.6,65.17,49.6C233.26,296,229.19,305.7,211,287.87Z"/><path class="cls-5" d="M184,288a37.48,37.48,0,0,0,20.55-6.25c.63-.41.11-1.47-.53-1a36.47,36.47,0,0,1-19.94,6.12c-.76,0-.84,1.19-.08,1.18Z"/><path class="cls-12" d="M297.5,379.36a57.91,57.91,0,0,0,13.66,2.24,1,1,0,0,0,.89-.48.93.93,0,0,0-.34-1.29c-2.86-1.82-8.9-3.25-12.28-3.95"/><path class="cls-12" d="M299.05,378.58a71,71,0,0,1,13.22,5.33,1.22,1.22,0,0,1,.72,1.6,1.49,1.49,0,0,1-1.71.69c-4.26-.73-10.92-2.85-15-4.08"/><path class="cls-12" d="M298.89,382.7a27.34,27.34,0,0,1,11.05,5.06,1.22,1.22,0,0,1,.41,1.51,1.29,1.29,0,0,1-1.44.52c-3.22-.53-8.93-2.21-12.14-2.74"/><path class="cls-12" d="M291.69,388c1.53.56,11.71,3.94,13.81,4.37a1.23,1.23,0,0,0,1.15-2.16,41,41,0,0,0-9.13-5.2"/><path class="cls-12" d="M300,379.3c1-1.09,2-2.1,2.87-3.25a8.72,8.72,0,0,0,1.82-3.89c.26-1.73-1-1.86-2.24-1.17a38.55,38.55,0,0,0-8.2,6.21"/><path class="cls-12" d="M300.74,377.27s-11-7.33-13.28,2.1c-1.81,7.42,1,7.83,10.87,10.68C301.75,391,304,382.68,300.74,377.27Z"/><path class="cls-12" d="M222.49,302.2s-18.6,68.59,72.08,87L297,374.5s-25.83-6-39.32-27.28C244.08,325.79,254.36,323.84,222.49,302.2Z"/><path class="cls-9" d="M269.42,360.39a56.16,56.16,0,0,1-11.75-13.17c-13.59-21.43-3.31-23.38-35.18-45,0,0-12.2,45,31.41,71.89A65.56,65.56,0,0,0,269.42,360.39Z"/><path class="cls-5" d="M262.32,355.76a57.31,57.31,0,0,1-15.62,12.33c-.67.36-.14,1.42.53,1.06a58.51,58.51,0,0,0,15.87-12.5c.5-.56-.27-1.45-.78-.89Z"/><polygon class="cls-3" points="51.34 215.96 42.81 195.87 0 214.04 19.68 218.02 23.78 227.66 51.34 215.96"/><path class="cls-5" d="M43.84,199.19,8.05,214.26c-.7.3-.17,1.35.53,1.06l35.79-15.08c.7-.3.17-1.35-.53-1.05Z"/><path class="cls-5" d="M47.38,208.39a7.43,7.43,0,0,1-9.47-5.3c-.2-.73-1.35-.5-1.16.24a8.63,8.63,0,0,0,10.87,6.21c.73-.2.49-1.36-.24-1.15Z"/><path class="cls-5" d="M26.49,218.11c-1.87.9-3.77,1.75-5.64,2.65a.59.59,0,0,0,.53,1.05c1.88-.9,3.77-1.75,5.64-2.64a.59.59,0,0,0-.53-1.06Z"/><path class="cls-5" d="M25.3,214.61l-6.62,2.81c-.7.29-.17,1.35.53,1.05l6.62-2.81c.69-.29.16-1.35-.53-1Z"/><path class="cls-13" d="M179.61,340.73C173,395.89,27.55,347.54,9,229l52-16.48s16.36,57.49,49.6,80.56S184.9,296.41,179.61,340.73Z"/><path class="cls-5" d="M166.43,309c-23.66-.81-46.07-10.95-63-27.43-16.25-15.85-28-36.2-37-56.85-.31-.69-1.36-.16-1.06.53,9.41,21.57,21.92,43.09,39.4,59.18a96.21,96.21,0,0,0,61.59,25.75.59.59,0,0,0,.07-1.18Z"/><path class="cls-5" d="M65.44,224.41C47.3,228,29.81,234,12.7,241c-.7.28-.17,1.33.53,1.05,17-6.91,34.41-12.86,52.45-16.43a.59.59,0,0,0-.24-1.16Z"/><path class="cls-5" d="M161.21,329c-5.54-1.24-11.42-2-16.39-4.94-6.84-4.06-11.66-12.48-6.51-19.85.44-.62-.54-1.28-1-.66-4,5.67-2.6,12.81,2,17.69,5.7,6,13.77,7.16,21.47,8.87.74.17,1.13-.95.39-1.11Z"/><path class="cls-5" d="M146.12,352.85a11.64,11.64,0,0,0-16.24,7.35c-.22.72.89,1.11,1.11.38A10.45,10.45,0,0,1,145.73,354c.69.32,1.07-.8.39-1.12Z"/><path class="cls-5" d="M153,343.35c-26.62-9.12-51.79-22.8-71.89-42.72-19.18-19-32.58-42.72-40.77-68.33-.23-.72-1.39-.49-1.16.24,13.11,41,39.66,74.86,77.3,96a218.31,218.31,0,0,0,36.13,15.94.59.59,0,0,0,.39-1.12Z"/><path class="cls-9" d="M243.63,319.08s2,25.68-18.19,40.39-50.06,15.61-75.26,7.89c-16-4.87,20.6-38.49,16.59-57.95,0,0,16.16,8.27,30.7,1.16C214.85,302.07,234.07,298.36,243.63,319.08Z"/><path class="cls-5" d="M176.59,313.79c5.18,20.07-18.73,37.32-8.63,57.37a.59.59,0,0,0,1.06-.53c-10-19.74,13.9-37,8.73-57.08-.19-.73-1.35-.49-1.16.24Z"/><path class="cls-5" d="M231.51,326.16a33.64,33.64,0,0,1-15,11.1c-.71.26-.18,1.31.53,1.05a34.69,34.69,0,0,0,15.49-11.49c.46-.6-.52-1.26-1-.66Z"/><path class="cls-12" d="M265,309.21c-2.25,5.59-8.23,17-17.78,11.12L244.85,323a7.86,7.86,0,0,1-11.43.26h0a7.88,7.88,0,0,1-.13-10.94l5.84-6.25s-3.86-3-1.31-6.3,6.12.21,6.12.21l1.53-1.77a10.57,10.57,0,0,1,13.7-2.05,15.21,15.21,0,0,1,5.79,7A8,8,0,0,1,265,309.21Z"/><path class="cls-5" d="M241.66,300.38a1.75,1.75,0,0,0-2.62,1c-.34,1.06.06,2.6,1.27,2.88.44.1.68-.57.23-.68-1.68-.39-.76-3.65.72-2.65a.36.36,0,0,0,.4-.59Z"/><path class="cls-5" d="M240.65,303.6a.66.66,0,0,1,.26-1.24c.45,0,.5-.74,0-.71a1.37,1.37,0,0,0-.7,2.55c.4.24.8-.36.4-.6Z"/><path class="cls-5" d="M257.55,310.6a8,8,0,0,0-2.15,5.06l.55-.28a9.36,9.36,0,0,0-1.8-1.19c-.41-.21-.81.38-.4.59a9.75,9.75,0,0,1,1.81,1.19c.21.19.54,0,.55-.27a7.29,7.29,0,0,1,1.91-4.56c.31-.34-.16-.88-.47-.54Z"/><path class="cls-5" d="M253.24,316.12a1.37,1.37,0,0,1-.74-1.91c.19-.42-.49-.65-.67-.23a2.07,2.07,0,0,0,1.18,2.81c.43.17.66-.51.23-.67Z"/><path class="cls-5" d="M254,308.75l.05.15c0-.6-1-.67-.95-.06.07,1,1.56,1,1.47,0A.78.78,0,1,0,253,309c.21,1,1.84.56,1.39-.42s-1.78,0-1.12.77c.39.48,1.1-.16.71-.63Z"/><path class="cls-5" d="M259.91,313.93l0,.15c0-.6-1-.67-.95-.06.07,1,1.56,1,1.48,0a.78.78,0,1,0-1.55.19c.2,1,1.83.56,1.38-.42s-1.78,0-1.12.77c.39.48,1.1-.15.72-.63Z"/><path class="cls-5" d="M247.44,319.86A12.37,12.37,0,0,1,243,315a.36.36,0,0,0-.64.32,13,13,0,0,0,4.69,5.12c.39.25.79-.35.4-.59Z"/><path class="cls-5" d="M252.76,306.14a6,6,0,0,1,4,2.15c.29.35.83-.12.53-.47a6.69,6.69,0,0,0-4.5-2.4c-.46-.05-.51.67-.05.72Z"/><path class="cls-5" d="M259.59,311.13a3.58,3.58,0,0,1,2.78,2.58c.12.44.82.3.7-.15a4.28,4.28,0,0,0-3.24-3.11c-.45-.09-.69.58-.24.68Z"/><path class="cls-5" d="M266.41,301a4.44,4.44,0,0,0-.78-3.82c-4.07-5.83-19.86-11-23.27-3.48-1.88,4.14,3,8.3,6.8,10,5.67,2.48,12.19,1.91,17.64.17C268.36,303.35,267.75,301.34,266.41,301Z"/><path class="cls-5" d="M232.17,332.6a1,1,0,0,0,.12-2,1,1,0,0,0-.12,2Z"/><path class="cls-5" d="M226.72,337.62a1,1,0,0,0,.13-2,1,1,0,0,0-.13,2Z"/><path class="cls-5" d="M220.34,341.11a1,1,0,0,0,.13-2,1,1,0,0,0-.13,2Z"/><path class="cls-5" d="M234.81,307.66c-6.5,2.69-9.54,10.84-5.24,16.72s12.47,5.34,16.89.05c.49-.59-.5-1.24-1-.66-4.17,5-12.07,4.92-15.51-.91-3.14-5.31-.05-11.91,5.37-14.14.7-.29.17-1.35-.53-1.06Z"/></g></g></g></svg>