<svg xmlns="http://www.w3.org/2000/svg" xmlns:xlink="http://www.w3.org/1999/xlink" viewBox="0 0 125.34 131.76"><defs><style>.cls-1{fill:none;}.cls-2{fill:#8c7bb7;}.cls-3{clip-path:url(#clip-path);}.cls-4{fill:#ffe778;}.cls-5{fill:#facebb;}.cls-6,.cls-7{fill:#f5a8a4;}.cls-6{opacity:0.86;}.cls-8{fill:#a36d66;}.cls-9{fill:#714e44;}</style><clipPath id="clip-path"><circle class="cls-1" cx="62.67" cy="62.67" r="62.67"/></clipPath></defs><g id="Camada_2" data-name="Camada 2"><g id="OBJECTS"><g id="NINE"><circle class="cls-2" cx="62.67" cy="62.67" r="62.67"/><g class="cls-3"><path class="cls-4" d="M99.87,98C95,94.07,68.66,87.42,63.18,86.07v-.25l-.51.12-.51-.12v.25c-5.48,1.35-31.85,8-36.69,11.88-5.41,4.34-7.58,33.81-7.58,33.81h89.56S105.28,102.29,99.87,98Z"/><path class="cls-5" d="M54.43,69.6H72.28a0,0,0,0,1,0,0V94.42a7.72,7.72,0,0,1-7.72,7.72h-2.4a7.72,7.72,0,0,1-7.72-7.72V69.6A0,0,0,0,1,54.43,69.6Z"/><path class="cls-6" d="M54.43,83.26a25.43,25.43,0,0,0,8.93,1.57,23.89,23.89,0,0,0,8.92-1.69V62.67H54.43Z"/><path class="cls-5" d="M91.66,45.18c0,15.63-10,34.92-28.3,34.92-19.2,0-28.31-19.29-28.31-34.92a28.31,28.31,0,1,1,56.61,0Z"/><path class="cls-5" d="M37.59,53.21c1.86,3.4,2.65,7.21-.23,8.79s-8.33.31-10.19-3.09-1-7.42,1.85-9S35.73,49.82,37.59,53.21Z"/><path class="cls-7" d="M29.93,59a.3.3,0,0,1-.26-.15,4.66,4.66,0,0,1-.51-3.14,3.4,3.4,0,0,1,1.68-2.37c1.77-1,4.13-.07,5.26,2a9,9,0,0,1,.68,1.51.29.29,0,1,1-.55.19,8.34,8.34,0,0,0-.63-1.43c-1-1.79-3-2.57-4.49-1.76a2.84,2.84,0,0,0-1.39,2,4.08,4.08,0,0,0,.46,2.75.28.28,0,0,1-.11.39Z"/><path class="cls-7" d="M35.68,59.36h-.23a2,2,0,0,1,.45-3.94.3.3,0,0,1,.26.32.29.29,0,0,1-.32.26,1.41,1.41,0,0,0-1.56,1.23,1.41,1.41,0,0,0,1.24,1.56,1.42,1.42,0,0,0,1.08-.34.29.29,0,0,1,.38.44A2,2,0,0,1,35.68,59.36Z"/><path class="cls-5" d="M88.53,53.21c-1.86,3.4-2.65,7.21.23,8.79s8.33.31,10.19-3.09,1-7.42-1.85-9S90.39,49.82,88.53,53.21Z"/><path class="cls-7" d="M96.19,59a.35.35,0,0,1-.14,0,.28.28,0,0,1-.11-.39,4,4,0,0,0,.45-2.75,2.83,2.83,0,0,0-1.38-2c-1.5-.81-3.51,0-4.49,1.76A8.34,8.34,0,0,0,89.89,57a.29.29,0,1,1-.55-.19A9,9,0,0,1,90,55.32c1.13-2.07,3.49-3,5.26-2A3.4,3.4,0,0,1,97,55.69a4.66,4.66,0,0,1-.51,3.14A.3.3,0,0,1,96.19,59Z"/><path class="cls-7" d="M90.44,59.36a2,2,0,0,1-1.3-.48.29.29,0,1,1,.38-.44,1.42,1.42,0,0,0,1.08.34,1.46,1.46,0,0,0,.94-.52A1.41,1.41,0,0,0,90.28,56a.29.29,0,0,1-.06-.58,2,2,0,1,1,.44,3.94Z"/><path class="cls-8" d="M53.39,51.42a.87.87,0,1,1-.87-.87A.87.87,0,0,1,53.39,51.42Z"/><path class="cls-8" d="M48.54,46.71h-.08a.3.3,0,0,1-.2-.36A3.85,3.85,0,0,1,52,43.68a.3.3,0,0,1,.3.28.29.29,0,0,1-.28.29,3.23,3.23,0,0,0-3.15,2.24A.3.3,0,0,1,48.54,46.71Z"/><path class="cls-8" d="M73.4,51.42a.87.87,0,1,0,.86-.87A.86.86,0,0,0,73.4,51.42Z"/><path class="cls-8" d="M78.25,46.71a.29.29,0,0,1-.28-.22,3.23,3.23,0,0,0-3.15-2.24.28.28,0,0,1-.28-.29.28.28,0,0,1,.3-.28,3.86,3.86,0,0,1,3.69,2.66.3.3,0,0,1-.21.36Z"/><path class="cls-8" d="M62.67,58a.3.3,0,0,1-.29-.26.28.28,0,0,1,.25-.32c2.08-.26,3.92-1.42,4.09-2.05a.15.15,0,0,0-.06-.19,7.5,7.5,0,0,0-3.16-.78.28.28,0,0,1-.28-.27c-.15-3.55-.23-8.71-.23-8.76a.3.3,0,0,1,.28-.3h0a.3.3,0,0,1,.29.29s.08,5,.22,8.48a7.3,7.3,0,0,1,3.23.89.72.72,0,0,1,.26.8c-.28,1-2.5,2.2-4.57,2.46Z"/><path class="cls-6" d="M48.07,55c.08,1.14-1.66,2.19-3.9,2.35s-4.12-.63-4.2-1.77,1.66-2.19,3.9-2.35S48,53.86,48.07,55Z"/><path class="cls-6" d="M79,55c-.08,1.14,1.66,2.19,3.9,2.35s4.12-.63,4.2-1.77-1.66-2.19-3.9-2.35S79.12,53.86,79,55Z"/><path class="cls-8" d="M62.83,63.47a4.42,4.42,0,0,1-4.41-4.41.29.29,0,0,1,.58,0,3.84,3.84,0,0,0,7.37,1.49.28.28,0,0,1,.38-.15.29.29,0,0,1,.15.38A4.41,4.41,0,0,1,62.83,63.47Z"/><path class="cls-5" d="M63.18,86.07V85.9l-1.09.18c-2.32.58-8.12,2-14.48,3.82,0,4.62,1.09,18.89,15.75,18.89,14.19,0,15.87-13.38,16-18.43C72.31,88.35,65.64,86.67,63.18,86.07Z"/><path class="cls-9" d="M35.41,50.67A51.35,51.35,0,0,0,47,28.82s29.28,11.83,32.21,0c0,0,2,13.14,12.1,21.43,0,0,8.18-26.74-6.46-24.57,0,0,3.24-3.8,2-6.4s-5.8,0-5.8,0,.23-6.07-2.81-7.7S75.13,16,75.13,16s-3.5-6.29-6.75-6.29S69,16,69,16s-6.4-5.64-11.28-5.53-1.63,5.85-1.63,5.85-3.5-2.49-5.87-2.17-2.8,5.75-2.8,5.75-13.78-1.84-9.66,8.14c0,0-2.6-2-3.36-1.74s2.36,2.93,2.36,2.93-4.74.32-6.15,3.36S35.41,50.67,35.41,50.67Z"/></g></g></g></g></svg>