<svg xmlns="http://www.w3.org/2000/svg" xmlns:xlink="http://www.w3.org/1999/xlink" viewBox="0 0 125.34 134.07"><defs><style>.cls-1{fill:none;}.cls-2{fill:#8c7bb7;}.cls-3{clip-path:url(#clip-path);}.cls-4{fill:#89c9c9;}.cls-5{fill:#facebb;}.cls-6,.cls-7{fill:#f5a8a4;}.cls-6{opacity:0.86;}.cls-8{fill:#a36d66;}.cls-9{fill:#fff;}.cls-10{fill:#714e44;}.cls-11{fill:#f4af9d;}</style><clipPath id="clip-path"><circle class="cls-1" cx="62.67" cy="62.67" r="62.67"/></clipPath></defs><g id="Camada_2" data-name="Camada 2"><g id="OBJECTS"><g id="ONE"><circle class="cls-2" cx="62.67" cy="62.67" r="62.67"/><g class="cls-3"><path class="cls-4" d="M99.2,100.26C94.36,96.38,68,89.73,62.51,88.38v-.25l-.51.12-.51-.12v.25c-5.49,1.35-31.85,8-36.69,11.88-5.41,4.34-7.58,33.81-7.58,33.81h89.56S104.61,104.6,99.2,100.26Z"/><path class="cls-5" d="M53.76,71.91H71.61a0,0,0,0,1,0,0V96.73a7.72,7.72,0,0,1-7.72,7.72h-2.4a7.72,7.72,0,0,1-7.72-7.72V71.91A0,0,0,0,1,53.76,71.91Z"/><path class="cls-6" d="M53.76,85.57a25.41,25.41,0,0,0,8.92,1.57,23.94,23.94,0,0,0,8.93-1.69V65H53.76Z"/><path class="cls-5" d="M91,47.49c0,15.63-10,34.92-28.31,34.92-19.19,0-28.3-19.29-28.3-34.92a28.31,28.31,0,0,1,56.61,0Z"/><path class="cls-5" d="M36.92,55.52c1.86,3.4,2.64,7.22-.23,8.79s-8.33.31-10.19-3.08-1-7.43,1.84-9S35.06,52.13,36.92,55.52Z"/><path class="cls-7" d="M29.26,61.3a.3.3,0,0,1-.26-.15A4.63,4.63,0,0,1,28.49,58a3.31,3.31,0,0,1,4.57-2.5,4.58,4.58,0,0,1,2.37,2.13,9.83,9.83,0,0,1,.68,1.51.29.29,0,0,1-.18.37.29.29,0,0,1-.37-.18,8.42,8.42,0,0,0-.64-1.43A4,4,0,0,0,32.85,56a2.81,2.81,0,0,0-2.41.1,2.88,2.88,0,0,0-1.39,2,4.08,4.08,0,0,0,.46,2.75.29.29,0,0,1-.12.39A.33.33,0,0,1,29.26,61.3Z"/><path class="cls-7" d="M35,61.67h-.23a2,2,0,1,1,.45-3.93.28.28,0,0,1,.25.32.29.29,0,0,1-.32.25,1.4,1.4,0,0,0-1.55,1.24,1.43,1.43,0,0,0,.3,1,1.4,1.4,0,0,0,2,.18.29.29,0,0,1,.38.44A2,2,0,0,1,35,61.67Z"/><path class="cls-5" d="M87.86,55.52c-1.86,3.4-2.65,7.22.23,8.79s8.32.31,10.18-3.08,1-7.43-1.84-9S89.71,52.13,87.86,55.52Z"/><path class="cls-7" d="M95.52,61.3a.37.37,0,0,1-.14,0,.28.28,0,0,1-.11-.39,4,4,0,0,0,.45-2.75,2.85,2.85,0,0,0-1.39-2,2.81,2.81,0,0,0-2.41-.1,4.06,4.06,0,0,0-2.07,1.86,8.34,8.34,0,0,0-.63,1.43.29.29,0,1,1-.55-.19,9.74,9.74,0,0,1,.67-1.51,4.66,4.66,0,0,1,2.37-2.13A3.32,3.32,0,0,1,96.29,58a4.63,4.63,0,0,1-.52,3.15A.29.29,0,0,1,95.52,61.3Z"/><path class="cls-7" d="M89.77,61.67a2,2,0,0,1-1.3-.48.29.29,0,1,1,.38-.44,1.4,1.4,0,0,0,2.31-1.21,1.34,1.34,0,0,0-.52-.94,1.37,1.37,0,0,0-1-.3.3.3,0,0,1-.32-.25.29.29,0,0,1,.26-.32,2,2,0,0,1,2.19,1.74A2,2,0,0,1,90,61.66Z"/><path class="cls-8" d="M52.72,53.73a.87.87,0,1,1-.87-.86A.87.87,0,0,1,52.72,53.73Z"/><path class="cls-8" d="M47.86,49h-.07a.29.29,0,0,1-.2-.35A3.85,3.85,0,0,1,51.28,46a.28.28,0,0,1,.3.28.29.29,0,0,1-.28.29,3.27,3.27,0,0,0-3.16,2.24A.29.29,0,0,1,47.86,49Z"/><path class="cls-8" d="M72.72,53.73a.87.87,0,1,0,.87-.86A.87.87,0,0,0,72.72,53.73Z"/><path class="cls-8" d="M77.58,49a.29.29,0,0,1-.28-.22,3.27,3.27,0,0,0-3.16-2.24.27.27,0,0,1-.27-.29.27.27,0,0,1,.29-.28,3.88,3.88,0,0,1,3.7,2.67.29.29,0,0,1-.21.35Z"/><path class="cls-6" d="M47.4,57.31c.08,1.14-1.67,2.19-3.91,2.35s-4.11-.63-4.2-1.76S41,55.71,43.2,55.54,47.32,56.18,47.4,57.31Z"/><path class="cls-6" d="M77.21,57.31c-.08,1.14,1.67,2.19,3.91,2.35s4.11-.63,4.2-1.76-1.67-2.19-3.91-2.36S77.29,56.18,77.21,57.31Z"/><path class="cls-9" d="M53.76,95.53V90.36l-8.32,2.28c-.25,15.39,7,20.39,7,20.39l8.48-8.76h0A8.92,8.92,0,0,1,53.76,95.53Z"/><path class="cls-9" d="M64.45,104.27h0L72.93,113s7.08-4.93,7-20c-2.89-.83-5.74-1.62-8.32-2.31v4.82A8.92,8.92,0,0,1,64.45,104.27Z"/><path class="cls-10" d="M90.82,51.05c-2.23,10.14-9,14.16-14.69,11.23a27.68,27.68,0,0,0-11-3c-2.78,1.43-4.38,1.2-5.27.73l-.06,0-.2-.12a2.73,2.73,0,0,1-.69-.77,28.35,28.35,0,0,0-10,3.24c-5.64,2.93-12.12-.55-14.36-10.69L34.72,53s3.87,10.19,2.74,10.79c0,0-5.88,20.73,24.93,20.86h.29c30.82-.13,24.85-20.67,24.85-20.67-.73-1.4,3.12-11.38,3.12-11.38Z"/><path class="cls-11" d="M60.73,66.18a4.42,4.42,0,0,1-4.42-4.42.29.29,0,0,1,.58,0,3.84,3.84,0,0,0,7.37,1.5.29.29,0,0,1,.38-.16.28.28,0,0,1,.15.38A4.4,4.4,0,0,1,60.73,66.18Z"/><path class="cls-10" d="M34.58,51.59s5.9-5.36,7.31-19.57c0,0,5.75-7.81,15.51-9.65,0,0,3.53,10.74,16.19,1.95,0,0,8.21,1.57,13.64,12.66,0,0-1.36,7.77,3.59,14.07l-.17,1.51a5.34,5.34,0,0,1,1.24-.6s3.35-27.53-5.7-22.76a32.31,32.31,0,0,0-11.11-8.35S75,14.13,70.31,13s-5.78,5.32-5.78,5.32S63,14.13,62,14.13s.7,4.12.7,4.12-6.92-4.09-8,.94A25.28,25.28,0,0,0,37.56,31.91s-6.62.87-7.92,6.18,3.67,14,3.67,14a6,6,0,0,1,1.41.82Z"/><path class="cls-8" d="M61.39,60.36a3.06,3.06,0,0,1-2.74-1.43.28.28,0,0,1,.1-.4.29.29,0,0,1,.39.1,2.7,2.7,0,0,0,2.8,1.1c2.1-.26,3.94-1.42,4.11-2a.15.15,0,0,0-.07-.2,7.43,7.43,0,0,0-3.16-.78.28.28,0,0,1-.27-.27c-.15-3.55-.23-8.71-.23-8.76a.3.3,0,0,1,.28-.3.31.31,0,0,1,.3.29s.07,5,.22,8.49a7.08,7.08,0,0,1,3.22.88.73.73,0,0,1,.27.8c-.28,1-2.51,2.2-4.58,2.46A3,3,0,0,1,61.39,60.36Z"/></g></g></g></g></svg>