<svg xmlns="http://www.w3.org/2000/svg" xmlns:xlink="http://www.w3.org/1999/xlink" viewBox="0 0 125.34 131.78"><defs><style>.cls-1{fill:none;}.cls-2{fill:#8c7bb7;}.cls-3{clip-path:url(#clip-path);}.cls-4{fill:#89c9c9;}.cls-5{fill:#facebb;}.cls-6,.cls-7{fill:#f5a8a4;}.cls-6{opacity:0.86;}.cls-8{fill:#a36d66;}.cls-9{fill:#ffae39;}</style><clipPath id="clip-path"><circle class="cls-1" cx="62.67" cy="62.67" r="62.67"/></clipPath></defs><g id="Camada_2" data-name="Camada 2"><g id="OBJECTS"><g id="SEVEN"><circle class="cls-2" cx="62.67" cy="62.67" r="62.67"/><g class="cls-3"><path class="cls-4" d="M99.87,98C95,94.09,68.66,87.44,63.18,86.09v-.25l-.51.12-.51-.12v.25c-5.48,1.35-31.85,8-36.69,11.88-5.41,4.34-7.58,33.81-7.58,33.81h89.56S105.28,102.31,99.87,98Z"/><path class="cls-5" d="M54.43,69.63H72.28a0,0,0,0,1,0,0V94.44a7.72,7.72,0,0,1-7.72,7.72h-2.4a7.72,7.72,0,0,1-7.72-7.72V69.63A0,0,0,0,1,54.43,69.63Z"/><path class="cls-6" d="M54.43,83.28a25.2,25.2,0,0,0,8.93,1.58,23.89,23.89,0,0,0,8.92-1.7V62.69H54.43Z"/><path class="cls-5" d="M91.66,45.2c0,15.63-10,34.92-28.3,34.92-19.2,0-28.31-19.29-28.31-34.92a28.31,28.31,0,0,1,56.61,0Z"/><path class="cls-5" d="M37.59,53.23c1.86,3.4,2.65,7.22-.23,8.79s-8.33.31-10.19-3.08-1-7.43,1.85-9S35.73,49.84,37.59,53.23Z"/><path class="cls-7" d="M29.93,59a.32.32,0,0,1-.26-.15,4.68,4.68,0,0,1-.51-3.15,3.36,3.36,0,0,1,1.68-2.36c1.77-1,4.13-.08,5.26,2a9,9,0,0,1,.68,1.51.29.29,0,1,1-.55.19,8.61,8.61,0,0,0-.63-1.42c-1-1.79-3-2.58-4.49-1.76a2.87,2.87,0,0,0-1.39,2,4.07,4.07,0,0,0,.46,2.75.28.28,0,0,1-.11.39A.27.27,0,0,1,29.93,59Z"/><path class="cls-7" d="M35.68,59.39l-.23,0a2,2,0,0,1-1-3.52,2,2,0,0,1,1.46-.41.3.3,0,0,1,.26.32.29.29,0,0,1-.32.25,1.4,1.4,0,0,0-1,.3,1.4,1.4,0,0,0-.22,2,1.4,1.4,0,0,0,.94.52,1.44,1.44,0,0,0,1.08-.34.29.29,0,0,1,.38.44A2,2,0,0,1,35.68,59.39Z"/><path class="cls-5" d="M88.53,53.23c-1.86,3.4-2.65,7.22.23,8.79s8.33.31,10.19-3.08,1-7.43-1.85-9S90.39,49.84,88.53,53.23Z"/><path class="cls-7" d="M96.19,59a.25.25,0,0,1-.14,0,.28.28,0,0,1-.11-.39,4,4,0,0,0,.45-2.75,2.83,2.83,0,0,0-1.38-2c-1.5-.82-3.51,0-4.49,1.76A8.61,8.61,0,0,0,89.89,57a.29.29,0,1,1-.55-.19A9,9,0,0,1,90,55.34c1.13-2.07,3.49-3,5.26-2A3.36,3.36,0,0,1,97,55.71a4.68,4.68,0,0,1-.51,3.15A.32.32,0,0,1,96.19,59Z"/><path class="cls-7" d="M90.44,59.39a2,2,0,0,1-1.3-.49.29.29,0,1,1,.38-.44,1.4,1.4,0,0,0,2-.18,1.37,1.37,0,0,0,.29-1,1.34,1.34,0,0,0-.52-.94,1.37,1.37,0,0,0-1-.3.3.3,0,0,1-.32-.25.29.29,0,0,1,.26-.32,2,2,0,0,1,1.45.41,2,2,0,0,1,.74,1.33,2,2,0,0,1-1.75,2.19Z"/><circle class="cls-8" cx="52.52" cy="51.44" r="0.87"/><path class="cls-8" d="M48.54,46.73h-.08a.29.29,0,0,1-.2-.35A3.85,3.85,0,0,1,52,43.7a.28.28,0,0,1,.3.28.3.3,0,0,1-.28.3,3.26,3.26,0,0,0-3.15,2.23A.3.3,0,0,1,48.54,46.73Z"/><path class="cls-8" d="M73.4,51.44a.87.87,0,1,0,.86-.86A.86.86,0,0,0,73.4,51.44Z"/><path class="cls-8" d="M78.25,46.73a.29.29,0,0,1-.28-.22,3.23,3.23,0,0,0-3.15-2.23.29.29,0,0,1-.28-.3.28.28,0,0,1,.3-.28,3.86,3.86,0,0,1,3.69,2.67.29.29,0,0,1-.21.35Z"/><path class="cls-8" d="M62.67,58a.29.29,0,0,1,0-.58c2.08-.26,3.92-1.42,4.09-2a.16.16,0,0,0-.06-.2,7.47,7.47,0,0,0-3.16-.78.28.28,0,0,1-.28-.27c-.15-3.55-.23-8.71-.23-8.76a.3.3,0,0,1,.28-.3h0a.29.29,0,0,1,.29.29s.08,5,.22,8.49a7.08,7.08,0,0,1,3.22.88.72.72,0,0,1,.27.8c-.28,1-2.5,2.2-4.57,2.46Z"/><path class="cls-6" d="M48.07,55c.08,1.14-1.66,2.19-3.9,2.35s-4.12-.63-4.2-1.76,1.66-2.19,3.9-2.35S48,53.89,48.07,55Z"/><path class="cls-6" d="M79,55c-.08,1.14,1.66,2.19,3.9,2.35s4.12-.63,4.2-1.76-1.66-2.19-3.9-2.35S79.12,53.89,79,55Z"/><path class="cls-8" d="M62.83,63.49a4.42,4.42,0,0,1-4.41-4.41.29.29,0,0,1,.58,0,3.83,3.83,0,0,0,7.37,1.49.29.29,0,1,1,.53.23A4.4,4.4,0,0,1,62.83,63.49Z"/><path class="cls-9" d="M77.16,89.76l-4.88-1.33v4.81a8.93,8.93,0,1,1-17.85,0V88.07c-1.69.45-3.54.94-5.46,1.48-.46,4.67.17,18.39,14.39,18.39C77.35,107.94,77.38,94.62,77.16,89.76Z"/><path class="cls-9" d="M35.41,50.69s10.64-2.24,13.13-19.26L44,26.33s6.22,6.07,18.65,7.27,16.66-5.43,22.41-3.37c0,0-2.37,11.55,6.24,20,0,0,8.62-24.7-3-20.9,0,0-4-14.32-25-14.32S37.25,29.37,37.25,29.37,28.91,28.64,35.41,50.69Z"/></g></g></g></g></svg>