<svg xmlns="http://www.w3.org/2000/svg" xmlns:xlink="http://www.w3.org/1999/xlink" viewBox="0 0 125.34 131.49"><defs><style>.cls-1{fill:none;}.cls-2{fill:#ff99ad;}.cls-3{clip-path:url(#clip-path);}.cls-4{fill:#714e44;}.cls-5{fill:#ff7155;}.cls-6{fill:#facebb;}.cls-7,.cls-8{fill:#f5a8a4;}.cls-7{opacity:0.86;}.cls-9{fill:#bf726b;}.cls-10{fill:#fff;}</style><clipPath id="clip-path"><circle class="cls-1" cx="62.67" cy="62.67" r="62.67" transform="translate(-9.07 114.72) rotate(-80.96)"/></clipPath></defs><g id="Camada_2" data-name="Camada 2"><g id="OBJECTS"><g id="SIX"><circle class="cls-2" cx="62.67" cy="62.67" r="62.67" transform="translate(-9.07 114.72) rotate(-80.96)"/><g class="cls-3"><path class="cls-4" d="M61.38,13S41.2-4.08,39.47,17.15c0,0-5.08-3.07-6.77-2.42s2.8,5.2,2.8,5.2-14.69,0-20.32,10S26.67,45.8,26.67,45.8,13.55,47,14,51.81s8.29-2.25,8.29-2.25S8.38,78.17,39.68,74c0,0-10.08,2.74-7.53,5.34S44.89,77,44.89,77s3,5.86,16.69,5.86,17.36-6.29,17.36-6.29-.35,5.2,2.86,5.2S84.58,74,84.58,74s9.33,5.56,12.15,4.91-6.36-6.07-6.36-6.07,16.4-3.41,16.48-11.47-8.2-14.7-8.2-14.7,7.19-2,7.19-5.72-8.46-.43-8.46-.43,5.94-15.94-1.91-24.89S77,14.73,77,14.73,80.18,8,77,8s-3.42,6.72-3.42,6.72S69.63-5.66,61.38,13Z"/><path class="cls-5" d="M99.27,97.68C94.42,93.8,68.06,87.15,62.58,85.79v-.25l-.51.13-.51-.13v.25c-5.49,1.36-31.85,8-36.69,11.89-5.42,4.34-7.58,33.81-7.58,33.81h89.56S104.68,102,99.27,97.68Z"/><path class="cls-6" d="M53.14,69.88H71a0,0,0,0,1,0,0V94.69a7.72,7.72,0,0,1-7.72,7.72h-2.4a7.72,7.72,0,0,1-7.72-7.72V69.88A0,0,0,0,1,53.14,69.88Z"/><path class="cls-7" d="M53.14,83.53a25.2,25.2,0,0,0,8.93,1.58A23.89,23.89,0,0,0,71,83.41V62.94H53.14Z"/><path class="cls-6" d="M90.37,45.45c0,15.63-14.63,34.92-28.3,34.92-14.82,0-28.31-19.29-28.31-34.92a28.31,28.31,0,0,1,56.61,0Z"/><path class="cls-6" d="M36.3,53.48c1.86,3.4,2.65,7.22-.23,8.79s-8.33.31-10.18-3.08-1-7.43,1.84-9S34.44,50.09,36.3,53.48Z"/><path class="cls-8" d="M28.64,59.26a.32.32,0,0,1-.26-.15c-1.13-2.07-.6-4.54,1.17-5.51s4.13-.08,5.27,2a9.74,9.74,0,0,1,.67,1.51.29.29,0,1,1-.55.19,8.34,8.34,0,0,0-.63-1.43c-1-1.78-3-2.57-4.48-1.76s-1.92,2.94-.94,4.73a.28.28,0,0,1-.11.39A.25.25,0,0,1,28.64,59.26Z"/><path class="cls-8" d="M34.39,59.63h-.22a2,2,0,1,1,.44-3.93.29.29,0,1,1-.06.57,1.4,1.4,0,0,0-.32,2.79,1.38,1.38,0,0,0,1.08-.34.29.29,0,0,1,.38.44A2,2,0,0,1,34.39,59.63Z"/><path class="cls-6" d="M87.24,53.48c-1.86,3.4-2.64,7.22.23,8.79s8.33.31,10.19-3.08,1-7.43-1.85-9S89.1,50.09,87.24,53.48Z"/><path class="cls-8" d="M94.9,59.26a.27.27,0,0,1-.14,0,.28.28,0,0,1-.11-.39c1-1.79.56-3.91-.93-4.73s-3.51,0-4.49,1.76a9.2,9.2,0,0,0-.63,1.43.29.29,0,0,1-.37.18.29.29,0,0,1-.18-.37,9.83,9.83,0,0,1,.68-1.51c1.13-2.07,3.49-3,5.26-2s2.3,3.44,1.17,5.51A.31.31,0,0,1,94.9,59.26Z"/><path class="cls-8" d="M89.15,59.63a2,2,0,0,1-1.3-.48.29.29,0,1,1,.38-.44,1.4,1.4,0,0,0,1.08.34A1.4,1.4,0,1,0,89,56.26a.29.29,0,0,1-.32-.25.29.29,0,0,1,.26-.32,2,2,0,0,1,.45,3.93Z"/><circle class="cls-9" cx="51.23" cy="51.69" r="0.87"/><path class="cls-9" d="M47.25,47h-.07a.29.29,0,0,1-.21-.35A3.86,3.86,0,0,1,50.66,44a.3.3,0,0,1,.3.28.29.29,0,0,1-.28.3,3.22,3.22,0,0,0-3.15,2.23A.3.3,0,0,1,47.25,47Z"/><path class="cls-9" d="M72.11,51.69a.87.87,0,1,0,1.73,0,.87.87,0,0,0-1.73,0Z"/><path class="cls-9" d="M77,47a.3.3,0,0,1-.28-.22,3.22,3.22,0,0,0-3.15-2.23.29.29,0,0,1,0-.58,3.86,3.86,0,0,1,3.69,2.67A.29.29,0,0,1,77,47Z"/><path class="cls-7" d="M46.78,55.27c.09,1.14-1.66,2.19-3.9,2.35s-4.12-.63-4.2-1.76,1.66-2.19,3.9-2.35S46.7,54.14,46.78,55.27Z"/><path class="cls-7" d="M77.75,55.27c-.08,1.14,1.67,2.19,3.9,2.35s4.12-.63,4.21-1.76S84.19,53.67,82,53.51,77.83,54.14,77.75,55.27Z"/><path class="cls-9" d="M61.54,63.74a4.41,4.41,0,0,1-4.41-4.41.29.29,0,0,1,.58,0,3.83,3.83,0,0,0,7.37,1.49.29.29,0,0,1,.38-.15.29.29,0,0,1,.15.38A4.4,4.4,0,0,1,61.54,63.74Z"/><path class="cls-9" d="M61.58,58.1a.29.29,0,0,1-.28-.24.28.28,0,0,1,.24-.33c2.14-.36,3.49-1.51,3.68-2.32l-3-.63a.3.3,0,0,1-.23-.26c-.28-3.44-.54-8.46-.55-8.51a.3.3,0,0,1,.28-.3h0a.29.29,0,0,1,.29.27s.26,4.85.53,8.28l3.05.64a.3.3,0,0,1,.23.27c.05,1.17-1.62,2.7-4.19,3.13Z"/><path class="cls-10" d="M62.07,102.42a8.93,8.93,0,0,1-8.93-8.93V88c-1.84.49-3.85,1-5.93,1.61a12.81,12.81,0,0,0-.61,8.81c1.62,6,6.66,9.77,11.25,8.52a7.7,7.7,0,0,0,4.92-4.52C62.53,102.4,62.3,102.42,62.07,102.42Z"/><path class="cls-10" d="M62.08,102.42A8.92,8.92,0,0,0,71,93.49V88c1.85.49,3.86,1,5.93,1.61a12.75,12.75,0,0,1,.62,8.81c-1.62,6-6.66,9.77-11.26,8.52a7.68,7.68,0,0,1-4.91-4.52C61.61,102.4,61.84,102.42,62.08,102.42Z"/><path class="cls-4" d="M34.3,51.09s17.1-3.47,17.8-22.43c0,0,3.13,9.77,9.48,11.55S71,34.76,71,34.76s-.74,4.62,1.62,5.12,4.39-5,4.39-5,1.31,5.28,9.76,5.53a12.65,12.65,0,0,0,3.16,10.16s12.53-35-28.3-35S34.3,51.09,34.3,51.09Z"/></g></g></g></g></svg>