<svg xmlns="http://www.w3.org/2000/svg" xmlns:xlink="http://www.w3.org/1999/xlink" viewBox="0 0 125.34 134.05"><defs><style>.cls-1{fill:none;}.cls-2{fill:#8c7bb7;}.cls-3{clip-path:url(#clip-path);}.cls-4{fill:#ff6a82;}.cls-5{fill:#facebb;}.cls-6,.cls-7{fill:#f5a8a4;}.cls-6{opacity:0.86;}.cls-8{fill:#a36d66;}.cls-9{fill:#ffe1e7;}.cls-10{fill:#39344d;}</style><clipPath id="clip-path"><circle class="cls-1" cx="62.67" cy="62.67" r="62.67"/></clipPath></defs><g id="Camada_2" data-name="Camada 2"><g id="OBJECTS"><g id="THREE"><circle class="cls-2" cx="62.67" cy="62.67" r="62.67"/><g class="cls-3"><path class="cls-4" d="M99.27,100.24c-4.85-3.88-31.21-10.53-36.69-11.89v-.24l-.51.12-.51-.12v.24c-5.49,1.36-31.85,8-36.69,11.89-5.42,4.34-7.58,33.81-7.58,33.81h89.56S104.68,104.58,99.27,100.24Z"/><path class="cls-5" d="M53.83,71.89H71.68a0,0,0,0,1,0,0V96.71A7.72,7.72,0,0,1,64,104.43h-2.4a7.72,7.72,0,0,1-7.72-7.72V71.89A0,0,0,0,1,53.83,71.89Z"/><path class="cls-6" d="M53.83,85.55a25.41,25.41,0,0,0,8.92,1.57,23.94,23.94,0,0,0,8.93-1.69V65H53.83Z"/><path class="cls-5" d="M91.06,47.47c0,15.63-10,34.92-28.31,34.92-19.19,0-28.3-19.29-28.3-34.92a28.31,28.31,0,1,1,56.61,0Z"/><path class="cls-5" d="M37,55.5c1.86,3.4,2.64,7.21-.23,8.79s-8.33.31-10.19-3.09-1-7.42,1.84-9S35.13,52.11,37,55.5Z"/><path class="cls-7" d="M29.32,61.27a.27.27,0,0,1-.25-.15A4.66,4.66,0,0,1,28.55,58a3.46,3.46,0,0,1,1.68-2.37,3.41,3.41,0,0,1,2.9-.13A4.64,4.64,0,0,1,35.5,57.6a10.37,10.37,0,0,1,.68,1.52.29.29,0,0,1-.19.37.28.28,0,0,1-.36-.18A8.42,8.42,0,0,0,35,57.88,4,4,0,0,0,32.92,56a2.81,2.81,0,0,0-2.41.1,2.84,2.84,0,0,0-1.39,2,4.08,4.08,0,0,0,.46,2.75.3.3,0,0,1-.12.39A.32.32,0,0,1,29.32,61.27Z"/><path class="cls-7" d="M35.08,61.65h-.23a2,2,0,0,1-1-3.52,2,2,0,0,1,1.46-.42.29.29,0,0,1,.25.32.28.28,0,0,1-.32.26,1.39,1.39,0,0,0-1.55,1.23,1.4,1.4,0,0,0,.3,1,1.4,1.4,0,0,0,2,.18.28.28,0,0,1,.4,0,.28.28,0,0,1,0,.41A2,2,0,0,1,35.08,61.65Z"/><path class="cls-5" d="M87.92,55.5c-1.85,3.4-2.64,7.21.24,8.79s8.32.31,10.18-3.09,1-7.42-1.84-9S89.78,52.11,87.92,55.5Z"/><path class="cls-7" d="M95.59,61.27a.32.32,0,0,1-.14,0,.3.3,0,0,1-.12-.39,4,4,0,0,0,.46-2.75A2.73,2.73,0,0,0,92,56a4.06,4.06,0,0,0-2.07,1.86,8.34,8.34,0,0,0-.63,1.43.3.3,0,0,1-.37.18.29.29,0,0,1-.18-.37,10.26,10.26,0,0,1,.67-1.52,4.68,4.68,0,0,1,2.37-2.12A3.31,3.31,0,0,1,96.36,58a4.6,4.6,0,0,1-.52,3.14A.27.27,0,0,1,95.59,61.27Z"/><path class="cls-7" d="M89.84,61.65a2,2,0,0,1-1.3-.48.29.29,0,0,1,0-.41.3.3,0,0,1,.41,0,1.39,1.39,0,0,0,2-.18,1.4,1.4,0,0,0,.3-1,1.42,1.42,0,0,0-.52-.94,1.37,1.37,0,0,0-1-.29.29.29,0,0,1-.32-.26.3.3,0,0,1,.25-.32,2,2,0,0,1,1.46.42,1.9,1.9,0,0,1,.73,1.33,1.94,1.94,0,0,1-.41,1.46,2,2,0,0,1-1.33.73Z"/><path class="cls-8" d="M52.79,53.71a.87.87,0,1,1-.87-.87A.87.87,0,0,1,52.79,53.71Z"/><path class="cls-8" d="M47.93,49h-.07a.3.3,0,0,1-.21-.35A3.88,3.88,0,0,1,51.35,46a.28.28,0,0,1,.3.27.29.29,0,0,1-.28.3,3.27,3.27,0,0,0-3.16,2.24A.28.28,0,0,1,47.93,49Z"/><path class="cls-8" d="M72.79,53.71a.87.87,0,1,0,.87-.87A.87.87,0,0,0,72.79,53.71Z"/><path class="cls-8" d="M77.65,49a.28.28,0,0,1-.28-.21,3.27,3.27,0,0,0-3.16-2.24.29.29,0,0,1-.28-.3.3.3,0,0,1,.3-.27,3.88,3.88,0,0,1,3.7,2.66.3.3,0,0,1-.21.35Z"/><path class="cls-8" d="M62.07,60.28a.29.29,0,0,1,0-.57c2.08-.27,3.92-1.42,4.09-2.05a.15.15,0,0,0-.07-.19,7.47,7.47,0,0,0-3.16-.78.28.28,0,0,1-.27-.27c-.15-3.55-.23-8.71-.23-8.76a.28.28,0,0,1,.28-.3h0a.29.29,0,0,1,.28.29c0,.05.08,5,.23,8.48a7.34,7.34,0,0,1,3.22.88.75.75,0,0,1,.27.81c-.28,1-2.51,2.2-4.58,2.46Z"/><path class="cls-6" d="M47.47,57.29c.08,1.14-1.67,2.19-3.91,2.35s-4.12-.63-4.2-1.77,1.67-2.19,3.91-2.35S47.39,56.15,47.47,57.29Z"/><path class="cls-6" d="M78.43,57.29c-.08,1.14,1.67,2.19,3.91,2.35s4.12-.63,4.2-1.77-1.67-2.19-3.9-2.35S78.52,56.15,78.43,57.29Z"/><path class="cls-8" d="M62.23,65.76a4.42,4.42,0,0,1-4.41-4.41.29.29,0,1,1,.57,0,3.84,3.84,0,0,0,7.37,1.49.29.29,0,0,1,.54.23A4.42,4.42,0,0,1,62.23,65.76Z"/><path class="cls-9" d="M62.75,110.83c-5.45,0-9.54-1.61-12.15-4.79-4.57-5.55-3-13.82-2.94-14.16a.28.28,0,0,1,.34-.23.29.29,0,0,1,.22.34c0,.08-1.57,8.35,2.83,13.69,2.49,3,6.43,4.57,11.7,4.57s9.24-1.53,11.68-4.56C78.66,100.43,77,92.36,77,92.28a.29.29,0,0,1,.22-.34.3.3,0,0,1,.35.22c.07.34,1.77,8.42-2.64,13.89C72.32,109.22,68.24,110.83,62.75,110.83Z"/><path class="cls-10" d="M34.65,52.84a36.71,36.71,0,0,0,9.86-18.57s33.35,5.13,36.28-4.8a31,31,0,0,0,9.93,23.07s8.69-27.87-6.19-25.26c0,0,2-6.12-.81-8.12S75.57,20.42,66,17.92,35.13,7.62,37.3,31.26c0,0-2.95-3.9-3.92-2.93s2.81,4,2.81,4-8.11.32-8.22,4.55S34.65,52.84,34.65,52.84Z"/></g></g></g></g></svg>