<svg xmlns="http://www.w3.org/2000/svg" xmlns:xlink="http://www.w3.org/1999/xlink" viewBox="0 0 125.34 134.07"><defs><style>.cls-1{fill:none;}.cls-2{fill:#ff99ad;}.cls-3{clip-path:url(#clip-path);}.cls-4{fill:#714e44;}.cls-5{fill:#ffae39;}.cls-6{fill:#facebb;}.cls-7,.cls-8{fill:#f5a8a4;}.cls-7{opacity:0.86;}.cls-9{fill:#bf726b;}</style><clipPath id="clip-path"><circle class="cls-1" cx="62.67" cy="62.67" r="62.67"/></clipPath></defs><g id="Camada_2" data-name="Camada 2"><g id="OBJECTS"><g id="TWO"><circle class="cls-2" cx="62.67" cy="62.67" r="62.67"/><g class="cls-3"><path class="cls-4" d="M89,22.8C77.27,8.05,61.55,16.3,61.55,16.3l0,10.83,0-10.83S45.73,8.05,34,22.8s-4.66,52,1.12,60.15,9.44-2.34,9.44-2.34,2.62,3.25,10,4.12h14c7.37-.87,10-4.12,10-4.12S82.14,91.13,87.91,83,100.8,37.55,89,22.8Z"/><path class="cls-5" d="M99.14,100.26c-4.85-3.88-31.21-10.53-36.7-11.88v-.25l-.5.12-.51-.12v.25c-5.49,1.35-31.85,8-36.69,11.88-5.42,4.34-7.58,33.81-7.58,33.81h89.55S104.55,104.6,99.14,100.26Z"/><path class="cls-6" d="M53,72.46H70.86a0,0,0,0,1,0,0V97.28A7.72,7.72,0,0,1,63.14,105h-2.4A7.72,7.72,0,0,1,53,97.28V72.46A0,0,0,0,1,53,72.46Z"/><path class="cls-7" d="M53,86.11a25.2,25.2,0,0,0,8.93,1.58A23.89,23.89,0,0,0,70.86,86V65.52H53Z"/><path class="cls-6" d="M90.24,48C90.24,63.67,75.6,83,61.94,83,47.12,83,33.63,63.67,33.63,48a28.31,28.31,0,0,1,56.61,0Z"/><path class="cls-6" d="M36.17,56.07c1.86,3.39,2.65,7.21-.23,8.78s-8.33.32-10.19-3.08-1-7.43,1.85-9S34.31,52.67,36.17,56.07Z"/><path class="cls-8" d="M28.51,61.84a.3.3,0,0,1-.26-.15,4.66,4.66,0,0,1-.51-3.14,3.36,3.36,0,0,1,1.68-2.37c1.77-1,4.13-.08,5.26,2a9.51,9.51,0,0,1,.68,1.52.28.28,0,0,1-.18.36.29.29,0,0,1-.37-.18,9.54,9.54,0,0,0-.63-1.42c-1-1.79-3-2.58-4.49-1.76a2.83,2.83,0,0,0-1.38,2,4,4,0,0,0,.45,2.75.28.28,0,0,1-.11.39A.25.25,0,0,1,28.51,61.84Z"/><path class="cls-8" d="M34.26,62.22H34a2,2,0,0,1,.44-3.94.29.29,0,1,1-.06.57,1.4,1.4,0,0,0-1,.3,1.41,1.41,0,0,0-.23,2,1.4,1.4,0,0,0,.94.52,1.42,1.42,0,0,0,1.08-.33.28.28,0,0,1,.41,0,.28.28,0,0,1,0,.4A2,2,0,0,1,34.26,62.22Z"/><path class="cls-6" d="M87.11,56.07c-1.86,3.39-2.65,7.21.23,8.78s8.33.32,10.19-3.08,1-7.43-1.85-9S89,52.67,87.11,56.07Z"/><path class="cls-8" d="M94.77,61.84a.27.27,0,0,1-.14,0,.28.28,0,0,1-.11-.39A4,4,0,0,0,95,58.66a2.83,2.83,0,0,0-1.38-2c-1.5-.82-3.51,0-4.49,1.76a8.61,8.61,0,0,0-.63,1.42.29.29,0,0,1-.37.18.28.28,0,0,1-.18-.36,9.51,9.51,0,0,1,.68-1.52c1.13-2.07,3.49-3,5.26-2a3.36,3.36,0,0,1,1.68,2.37A4.66,4.66,0,0,1,95,61.69.3.3,0,0,1,94.77,61.84Z"/><path class="cls-8" d="M89,62.22a2,2,0,0,1-1.3-.49.28.28,0,0,1,0-.4.29.29,0,0,1,.41,0,1.41,1.41,0,1,0,.76-2.46.28.28,0,0,1-.32-.25.3.3,0,0,1,.26-.32A2,2,0,0,1,91,60a2,2,0,0,1-1.75,2.2Z"/><circle class="cls-9" cx="51.1" cy="54.28" r="0.87"/><path class="cls-9" d="M47.12,49.56H47a.29.29,0,0,1-.2-.35,3.85,3.85,0,0,1,3.69-2.67.28.28,0,0,1,.3.28.3.3,0,0,1-.28.3,3.26,3.26,0,0,0-3.15,2.23A.3.3,0,0,1,47.12,49.56Z"/><path class="cls-9" d="M72,54.28a.87.87,0,1,0,.86-.87A.87.87,0,0,0,72,54.28Z"/><path class="cls-9" d="M76.83,49.56a.29.29,0,0,1-.28-.21,3.22,3.22,0,0,0-3.15-2.24.29.29,0,1,1,0-.58,3.86,3.86,0,0,1,3.69,2.67.29.29,0,0,1-.21.35Z"/><path class="cls-7" d="M46.65,57.86c.08,1.13-1.66,2.19-3.9,2.35s-4.12-.63-4.2-1.77,1.66-2.19,3.9-2.35S46.57,56.72,46.65,57.86Z"/><path class="cls-7" d="M77.62,57.86c-.08,1.13,1.66,2.19,3.9,2.35s4.12-.63,4.2-1.77-1.66-2.19-3.9-2.35S77.7,56.72,77.62,57.86Z"/><path class="cls-9" d="M61.41,66.33A4.42,4.42,0,0,1,57,61.91a.29.29,0,0,1,.58,0A3.84,3.84,0,0,0,65,63.41a.29.29,0,0,1,.38-.16.3.3,0,0,1,.15.38A4.41,4.41,0,0,1,61.41,66.33Z"/><path class="cls-9" d="M61.45,60.68a.28.28,0,0,1-.28-.24.29.29,0,0,1,.24-.33c2.14-.35,3.49-1.51,3.68-2.31l-3-.64a.29.29,0,0,1-.23-.26c-.28-3.44-.54-8.45-.55-8.5a.3.3,0,0,1,.28-.31h0a.29.29,0,0,1,.29.28s.26,4.85.53,8.27l3,.64a.3.3,0,0,1,.23.27c0,1.17-1.62,2.71-4.19,3.13Z"/><path class="cls-6" d="M81.23,93.43c-8-2.34-16-4.37-18.79-5.05v-.25l-.5.12-.51-.12v.25c-2.84.7-11.27,2.82-19.42,5.24-1.8,6.35-5.68,26.95,19.93,26.95C87.82,120.57,83.13,99.53,81.23,93.43Z"/><path class="cls-6" d="M28.08,134.07c.72-18.65,2.41-32.44,3-36.86a26.62,26.62,0,0,0-6.35,3.05c-5.42,4.34-7.58,33.81-7.58,33.81Z"/><path class="cls-6" d="M95.79,134.07c-.72-18.65-2.41-32.44-3-36.86a27,27,0,0,1,6.35,3.05c5.41,4.34,7.57,33.81,7.57,33.81Z"/><path class="cls-4" d="M34.17,53.67s22.32-8.09,27.08-27.21c0,0-1,8.62,1.59,9.93S69,31.59,69,31.59s-.9,4,.65,4.15,3.73-4.23,3.73-4.23a4.6,4.6,0,0,0,3.42,3.57c2.93.66,5.37-2.92,5.37-2.92s-.77,10.21,7.55,21c0,0,9.43-34.84-27.81-34.84S34.17,53.67,34.17,53.67Z"/></g></g></g></g></svg>