<svg xmlns="http://www.w3.org/2000/svg" viewBox="0 0 558.93 136.5"><defs><style>.cls-1{fill:#00df83;}.cls-2{fill:#fff;}.cls-3{fill:#ffda74;}</style></defs><g id="Camada_2" data-name="Camada 2"><g id="Camada_1-2" data-name="Camada 1"><rect class="cls-1" x="85.73" y="1.82" width="34.58" height="29.12"/><path class="cls-2" d="M11.83,134.68V76.08H0v-26H11.83V39.68a49.53,49.53,0,0,1,2.55-16.29,37.13,37.13,0,0,1,7.1-12.56,30.81,30.81,0,0,1,11-8A35.78,35.78,0,0,1,47,0Q59,0,73.53,5.46L67.7,31.67a48.94,48.94,0,0,0-6.64-1.82,31.4,31.4,0,0,0-6.28-.73q-8.37,0-8.37,9.28V50.05H67.34v26H46.41v58.6Z"/><rect class="cls-2" x="85.73" y="38.95" width="34.58" height="95.73"/><path class="cls-2" d="M166,136.5a36.78,36.78,0,0,1-13.28-2.37,32.74,32.74,0,0,1-10.65-6.46,29.45,29.45,0,0,1-9.56-21.93,28.47,28.47,0,0,1,3.1-13.28,31.77,31.77,0,0,1,8.55-10.38,39.6,39.6,0,0,1,13-6.73A55.47,55.47,0,0,1,173.82,73q11.64,0,19.29,3.64V73.71q0-6.73-3.91-10t-12.65-3.28a42.26,42.26,0,0,0-15.11,2.64,74.41,74.41,0,0,0-14.56,7.74l-10-21.48Q155.8,37.13,180,37.13q22.92,0,35.3,10.19T227.69,77.9V96.46c0,3.28.48,5.55,1.46,6.83s2.66,2,5.09,2.27v29.12c-2.79.61-5.43,1.06-7.92,1.37a56,56,0,0,1-6.64.45q-9.28,0-14.1-3.37a15.66,15.66,0,0,1-6.28-9.92l-.73-3.45a44,44,0,0,1-14.74,12.46A38.69,38.69,0,0,1,166,136.5Zm10.38-24.75a21.7,21.7,0,0,0,6.37-1,23.53,23.53,0,0,0,5.82-2.64,14.89,14.89,0,0,0,3.28-3.19,6,6,0,0,0,1.27-3.55V94.28a48.34,48.34,0,0,0-6.73-1.82,33.51,33.51,0,0,0-6.56-.73,17.27,17.27,0,0,0-10.55,3.09,9.36,9.36,0,0,0-4.19,7.83,8,8,0,0,0,3.19,6.55A12.54,12.54,0,0,0,176.37,111.75Z"/><path class="cls-2" d="M286.84,136.5a44.46,44.46,0,0,1-18.11-3.64,41.7,41.7,0,0,1-14.29-10.28,47.85,47.85,0,0,1-9.37-15.84,57.89,57.89,0,0,1-3.37-20.11A60.45,60.45,0,0,1,244.8,67a48.69,48.69,0,0,1,8.64-15.75,39.87,39.87,0,0,1,13.2-10.37,38,38,0,0,1,16.92-3.73,35.19,35.19,0,0,1,17,4.18A29.15,29.15,0,0,1,312.5,53.14V1.82h34.58V96.46c0,3.28.48,5.55,1.46,6.83s2.67,2,5.09,2.27v29.12a76.25,76.25,0,0,1-14.56,1.82q-17.65,0-20.38-13.29l-.73-3.45a29.87,29.87,0,0,1-13.28,12.74A41,41,0,0,1,286.84,136.5Zm9.46-29.12q9.46,0,16.38-9.83V80.44a24.46,24.46,0,0,0-7.46-10.28,16.37,16.37,0,0,0-10.37-3.91,15,15,0,0,0-7,1.64,16.43,16.43,0,0,0-5.46,4.55,23.74,23.74,0,0,0-3.64,6.73,24.19,24.19,0,0,0-1.36,8.19q0,9.11,5.18,14.56T296.3,107.38Z"/><path class="cls-2" d="M519.07,136.5a75.66,75.66,0,0,1-24.57-4.09,55.65,55.65,0,0,1-20.38-11.93L486,99.74A91.36,91.36,0,0,0,503.14,109a41.77,41.77,0,0,0,15.2,3.27c4.85,0,7.28-1.51,7.28-4.55,0-1.69-.94-3.15-2.82-4.36s-5.55-2.61-11-4.19a161.44,161.44,0,0,1-17-5.73,49.33,49.33,0,0,1-11.1-6.1,19.47,19.47,0,0,1-6.1-7.28,22.74,22.74,0,0,1-1.82-9.46,31.08,31.08,0,0,1,2.92-13.47,32.61,32.61,0,0,1,8.09-10.74,36.51,36.51,0,0,1,12.38-7A48.6,48.6,0,0,1,514.88,37,72.91,72.91,0,0,1,535,39.68q9.56,2.73,19.2,11.1L541.09,71.53a92.58,92.58,0,0,0-14.92-8.28,29.9,29.9,0,0,0-11.29-2.46A9.86,9.86,0,0,0,509.79,62a4,4,0,0,0-2,3.73q0,2.73,2.91,4.46t11.46,3.91a131.83,131.83,0,0,1,17.48,5.74A45.51,45.51,0,0,1,551,86.36a20.63,20.63,0,0,1,6.1,8,27.1,27.1,0,0,1,1.82,10.28,31,31,0,0,1-2.73,13.29,28,28,0,0,1-7.92,10,36.1,36.1,0,0,1-12.56,6.37A58.77,58.77,0,0,1,519.07,136.5Z"/><path class="cls-3" d="M409,69.45A3.38,3.38,0,0,0,410.07,72a9.81,9.81,0,0,0,3.16,1.85v-8Q409,66.4,409,69.45Z"/><path class="cls-3" d="M423.33,102.08a3.35,3.35,0,0,0-1.26-2.58,11.47,11.47,0,0,0-3.37-2v7.79a6.75,6.75,0,0,0,3.58-1A2.7,2.7,0,0,0,423.33,102.08Z"/><path class="cls-3" d="M464,68a45.09,45.09,0,0,0-10-15.84,48.93,48.93,0,0,0-16.48-10.92,55.36,55.36,0,0,0-17.35-3.9V47.87a52,52,0,0,1,6.73,1.26,63.81,63.81,0,0,1,6.27,1.95c2,.73,3.87,1.51,5.63,2.31s3.37,1.56,4.84,2.27L434.81,72.6a43.69,43.69,0,0,0-5.05-2.73,45.27,45.27,0,0,0-5.21-2.16,38.48,38.48,0,0,0-5.85-1.53v9.48a16.77,16.77,0,0,1,2,.58c.7.24,1.44.47,2.21.68a76.51,76.51,0,0,1,9.32,3.47,29.27,29.27,0,0,1,7.11,4.48,17.19,17.19,0,0,1,4.52,6.26,22.75,22.75,0,0,1,1.58,9,23.68,23.68,0,0,1-2.16,10.58,20.64,20.64,0,0,1-5.68,7.16,24.94,24.94,0,0,1-8.05,4.21,40.27,40.27,0,0,1-9.37,1.73v12.55a55.36,55.36,0,0,0,17.35-3.9A48.93,48.93,0,0,0,454,121.49a45.09,45.09,0,0,0,10-15.84A54.32,54.32,0,0,0,464,68Z"/><path class="cls-3" d="M411.76,123.55a69.27,69.27,0,0,1-14.43-2.84,59.22,59.22,0,0,1-12.84-5.58l8.84-18a63,63,0,0,0,6.11,3.37,58.91,58.91,0,0,0,6.37,2.68,36.8,36.8,0,0,0,7.42,1.85V95.76c-2.18-.56-4.35-1.23-6.53-2a54.22,54.22,0,0,1-8.52-3.63,23,23,0,0,1-5.9-4.42,15.94,15.94,0,0,1-3.42-5.63,21.91,21.91,0,0,1-1.11-7.27,25.09,25.09,0,0,1,1.9-10.05,23.16,23.16,0,0,1,5.16-7.53,25.37,25.37,0,0,1,7.63-5,31.75,31.75,0,0,1,9.32-2.42V37.19a56.12,56.12,0,0,0-19.45,4,48.88,48.88,0,0,0-16.38,10.92,45,45,0,0,0-10,15.84,54.32,54.32,0,0,0,0,37.67,45,45,0,0,0,10,15.84,48.88,48.88,0,0,0,16.38,10.92,55.89,55.89,0,0,0,19.45,4Z"/></g></g></svg>